<mxfile host="app.diagrams.net" agent="Mozilla/5.0 (Windows NT 10.0; Win64; x64) AppleWebKit/537.36 (KHTML, like Gecko) Chrome/137.0.0.0 Safari/537.36" version="27.1.4">
  <diagram name="Page-1" id="rLo1q9Qd0Z6dPpDgeSFO">
    <mxGraphModel dx="5476" dy="6167" grid="1" gridSize="10" guides="1" tooltips="1" connect="1" arrows="1" fold="1" page="1" pageScale="5" pageWidth="850" pageHeight="1100" math="0" shadow="0">
      <root>
        <mxCell id="0" />
        <mxCell id="1" parent="0" />
        <mxCell id="DTtZkwZOQEOStWwTzAfP-163" value="" style="ellipse;whiteSpace=wrap;html=1;" parent="1" vertex="1">
          <mxGeometry x="-566" y="805" width="100" height="45" as="geometry" />
        </mxCell>
        <mxCell id="DTtZkwZOQEOStWwTzAfP-96" value="" style="rhombus;whiteSpace=wrap;html=1;" parent="1" vertex="1">
          <mxGeometry x="2390" y="769.29" width="100" height="101.42" as="geometry" />
        </mxCell>
        <mxCell id="DTtZkwZOQEOStWwTzAfP-85" style="edgeStyle=orthogonalEdgeStyle;rounded=0;orthogonalLoop=1;jettySize=auto;html=1;exitX=1;exitY=0.5;exitDx=0;exitDy=0;strokeColor=#FF0000;shape=link;" parent="1" source="DTtZkwZOQEOStWwTzAfP-84" target="ufHKqpi8NyHyEoY8DNFn-9" edge="1">
          <mxGeometry relative="1" as="geometry" />
        </mxCell>
        <mxCell id="EyuBBjKlVLC_FoclDnfz-17" style="edgeStyle=orthogonalEdgeStyle;rounded=0;orthogonalLoop=1;jettySize=auto;html=1;exitX=0;exitY=0.5;exitDx=0;exitDy=0;entryX=1;entryY=0.5;entryDx=0;entryDy=0;strokeColor=#FF0000;" parent="1" source="DTtZkwZOQEOStWwTzAfP-84" target="ufHKqpi8NyHyEoY8DNFn-8" edge="1">
          <mxGeometry relative="1" as="geometry" />
        </mxCell>
        <mxCell id="DTtZkwZOQEOStWwTzAfP-84" value="" style="rhombus;whiteSpace=wrap;html=1;" parent="1" vertex="1">
          <mxGeometry x="2970" y="428.28999999999996" width="100" height="101.42" as="geometry" />
        </mxCell>
        <mxCell id="ToU6loC46J24oxrMq6Bs-6" value="User" style="whiteSpace=wrap;html=1;aspect=fixed;" parent="1" vertex="1">
          <mxGeometry x="210" y="-115" width="80" height="80" as="geometry" />
        </mxCell>
        <mxCell id="ToU6loC46J24oxrMq6Bs-59" value="" style="edgeStyle=orthogonalEdgeStyle;rounded=0;orthogonalLoop=1;jettySize=auto;html=1;exitX=0.5;exitY=1;exitDx=0;exitDy=0;strokeColor=#FF0000;" parent="1" source="ToU6loC46J24oxrMq6Bs-9" target="ToU6loC46J24oxrMq6Bs-13" edge="1">
          <mxGeometry relative="1" as="geometry">
            <mxPoint x="995" y="412.0000000000002" as="sourcePoint" />
            <mxPoint x="925" y="511.9999999999998" as="targetPoint" />
          </mxGeometry>
        </mxCell>
        <mxCell id="UtE5IbcF4sJG9WHfilwN-26" style="edgeStyle=orthogonalEdgeStyle;rounded=0;orthogonalLoop=1;jettySize=auto;html=1;exitX=1;exitY=0.75;exitDx=0;exitDy=0;entryX=0.5;entryY=0;entryDx=0;entryDy=0;strokeColor=#00FF00;" parent="1" source="ToU6loC46J24oxrMq6Bs-9" target="UtE5IbcF4sJG9WHfilwN-23" edge="1">
          <mxGeometry relative="1" as="geometry">
            <mxPoint x="1270" y="339" as="sourcePoint" />
          </mxGeometry>
        </mxCell>
        <mxCell id="GPYepnfZ225K1OBBeHl1-21" style="edgeStyle=orthogonalEdgeStyle;rounded=0;orthogonalLoop=1;jettySize=auto;html=1;exitX=1;exitY=0.25;exitDx=0;exitDy=0;entryX=0.5;entryY=1;entryDx=0;entryDy=0;strokeColor=#0000FF;" parent="1" source="ToU6loC46J24oxrMq6Bs-9" target="GPYepnfZ225K1OBBeHl1-5" edge="1">
          <mxGeometry relative="1" as="geometry" />
        </mxCell>
        <mxCell id="GPYepnfZ225K1OBBeHl1-23" style="edgeStyle=orthogonalEdgeStyle;rounded=0;orthogonalLoop=1;jettySize=auto;html=1;exitX=0.5;exitY=1;exitDx=0;exitDy=0;entryX=0.5;entryY=0;entryDx=0;entryDy=0;strokeColor=#FF0000;" parent="1" source="ToU6loC46J24oxrMq6Bs-9" target="ToU6loC46J24oxrMq6Bs-57" edge="1">
          <mxGeometry relative="1" as="geometry" />
        </mxCell>
        <mxCell id="ToU6loC46J24oxrMq6Bs-9" value="Customer" style="whiteSpace=wrap;html=1;aspect=fixed;" parent="1" vertex="1">
          <mxGeometry x="920" y="260" width="80" height="80" as="geometry" />
        </mxCell>
        <mxCell id="ToU6loC46J24oxrMq6Bs-16" value="" style="edgeStyle=orthogonalEdgeStyle;rounded=0;orthogonalLoop=1;jettySize=auto;html=1;strokeColor=#FF0000;" parent="1" source="ToU6loC46J24oxrMq6Bs-13" target="ToU6loC46J24oxrMq6Bs-15" edge="1">
          <mxGeometry relative="1" as="geometry" />
        </mxCell>
        <mxCell id="ToU6loC46J24oxrMq6Bs-13" value="has" style="rhombus;whiteSpace=wrap;html=1;" parent="1" vertex="1">
          <mxGeometry x="640" y="401" width="80" height="80" as="geometry" />
        </mxCell>
        <mxCell id="ToU6loC46J24oxrMq6Bs-15" value="Cart" style="whiteSpace=wrap;html=1;aspect=fixed;" parent="1" vertex="1">
          <mxGeometry x="640" y="520" width="80" height="80" as="geometry" />
        </mxCell>
        <mxCell id="ToU6loC46J24oxrMq6Bs-23" value="" style="edgeStyle=orthogonalEdgeStyle;rounded=0;orthogonalLoop=1;jettySize=auto;html=1;strokeColor=#0000FF;" parent="1" source="ToU6loC46J24oxrMq6Bs-20" target="ToU6loC46J24oxrMq6Bs-22" edge="1">
          <mxGeometry relative="1" as="geometry" />
        </mxCell>
        <mxCell id="a7dV4E0T_Zjt77kAnCjl-5" style="edgeStyle=orthogonalEdgeStyle;rounded=0;orthogonalLoop=1;jettySize=auto;html=1;exitX=1;exitY=0.5;exitDx=0;exitDy=0;strokeColor=#0000FF;" parent="1" source="ToU6loC46J24oxrMq6Bs-20" target="ToU6loC46J24oxrMq6Bs-15" edge="1">
          <mxGeometry relative="1" as="geometry" />
        </mxCell>
        <mxCell id="ToU6loC46J24oxrMq6Bs-20" value="contains" style="rhombus;whiteSpace=wrap;html=1;" parent="1" vertex="1">
          <mxGeometry x="260" y="520" width="80" height="80" as="geometry" />
        </mxCell>
        <mxCell id="ToU6loC46J24oxrMq6Bs-26" value="" style="edgeStyle=orthogonalEdgeStyle;rounded=0;orthogonalLoop=1;jettySize=auto;html=1;exitX=0.5;exitY=1;exitDx=0;exitDy=0;strokeColor=#00FF00;" parent="1" source="ToU6loC46J24oxrMq6Bs-22" target="ToU6loC46J24oxrMq6Bs-25" edge="1">
          <mxGeometry relative="1" as="geometry" />
        </mxCell>
        <mxCell id="ToU6loC46J24oxrMq6Bs-22" value="Cart_Item" style="whiteSpace=wrap;html=1;aspect=fixed;" parent="1" vertex="1">
          <mxGeometry x="-40" y="720" width="80" height="80" as="geometry" />
        </mxCell>
        <mxCell id="ToU6loC46J24oxrMq6Bs-76" style="edgeStyle=orthogonalEdgeStyle;rounded=0;orthogonalLoop=1;jettySize=auto;html=1;exitX=0.5;exitY=1;exitDx=0;exitDy=0;strokeColor=#00FF00;entryX=0.25;entryY=0;entryDx=0;entryDy=0;" parent="1" source="ToU6loC46J24oxrMq6Bs-25" target="ToU6loC46J24oxrMq6Bs-27" edge="1">
          <mxGeometry relative="1" as="geometry">
            <mxPoint y="1045.500000000001" as="sourcePoint" />
            <mxPoint x="270.07692307692287" y="1365.0599999999995" as="targetPoint" />
          </mxGeometry>
        </mxCell>
        <mxCell id="ToU6loC46J24oxrMq6Bs-25" value="refers to" style="rhombus;whiteSpace=wrap;html=1;" parent="1" vertex="1">
          <mxGeometry x="-40" y="971.5" width="80" height="80" as="geometry" />
        </mxCell>
        <mxCell id="DTtZkwZOQEOStWwTzAfP-1" style="edgeStyle=orthogonalEdgeStyle;rounded=0;orthogonalLoop=1;jettySize=auto;html=1;exitX=1;exitY=0.25;exitDx=0;exitDy=0;entryX=0.5;entryY=1;entryDx=0;entryDy=0;strokeColor=#663300;" parent="1" source="ToU6loC46J24oxrMq6Bs-27" target="GPYepnfZ225K1OBBeHl1-32" edge="1">
          <mxGeometry relative="1" as="geometry" />
        </mxCell>
        <mxCell id="DTtZkwZOQEOStWwTzAfP-19" style="edgeStyle=orthogonalEdgeStyle;rounded=0;orthogonalLoop=1;jettySize=auto;html=1;exitX=1;exitY=0.5;exitDx=0;exitDy=0;entryX=0;entryY=0.5;entryDx=0;entryDy=0;strokeColor=#00FF00;" parent="1" source="ToU6loC46J24oxrMq6Bs-27" target="ToU6loC46J24oxrMq6Bs-251" edge="1">
          <mxGeometry relative="1" as="geometry" />
        </mxCell>
        <mxCell id="DTtZkwZOQEOStWwTzAfP-138" style="edgeStyle=orthogonalEdgeStyle;rounded=0;orthogonalLoop=1;jettySize=auto;html=1;exitX=1;exitY=1;exitDx=0;exitDy=0;entryX=0.5;entryY=0;entryDx=0;entryDy=0;strokeColor=#0000FF;" parent="1" source="ToU6loC46J24oxrMq6Bs-27" edge="1">
          <mxGeometry relative="1" as="geometry">
            <mxPoint x="850" y="1471.5600000000004" as="targetPoint" />
            <Array as="points">
              <mxPoint x="595" y="1451" />
              <mxPoint x="851" y="1452" />
              <mxPoint x="851" y="1472" />
            </Array>
          </mxGeometry>
        </mxCell>
        <mxCell id="DTtZkwZOQEOStWwTzAfP-142" style="edgeStyle=orthogonalEdgeStyle;rounded=0;orthogonalLoop=1;jettySize=auto;html=1;exitX=0.75;exitY=0;exitDx=0;exitDy=0;entryX=0.5;entryY=1;entryDx=0;entryDy=0;strokeColor=#00FF00;" parent="1" source="ToU6loC46J24oxrMq6Bs-27" target="UtE5IbcF4sJG9WHfilwN-23" edge="1">
          <mxGeometry relative="1" as="geometry" />
        </mxCell>
        <mxCell id="EyuBBjKlVLC_FoclDnfz-25" style="edgeStyle=orthogonalEdgeStyle;rounded=0;orthogonalLoop=1;jettySize=auto;html=1;exitX=1;exitY=0.75;exitDx=0;exitDy=0;entryX=0.5;entryY=0;entryDx=0;entryDy=0;strokeColor=#0000FF;" parent="1" source="ToU6loC46J24oxrMq6Bs-27" target="EyuBBjKlVLC_FoclDnfz-23" edge="1">
          <mxGeometry relative="1" as="geometry" />
        </mxCell>
        <mxCell id="ToU6loC46J24oxrMq6Bs-27" value="Product" style="whiteSpace=wrap;html=1;aspect=fixed;" parent="1" vertex="1">
          <mxGeometry x="260" y="1371.06" width="80" height="80" as="geometry" />
        </mxCell>
        <mxCell id="ToU6loC46J24oxrMq6Bs-34" value="" style="edgeStyle=orthogonalEdgeStyle;rounded=0;orthogonalLoop=1;jettySize=auto;html=1;strokeColor=#0000FF;" parent="1" source="ToU6loC46J24oxrMq6Bs-31" target="ToU6loC46J24oxrMq6Bs-33" edge="1">
          <mxGeometry relative="1" as="geometry" />
        </mxCell>
        <mxCell id="ToU6loC46J24oxrMq6Bs-31" value="places" style="rhombus;whiteSpace=wrap;html=1;" parent="1" vertex="1">
          <mxGeometry x="1470" y="260" width="80" height="80" as="geometry" />
        </mxCell>
        <mxCell id="ToU6loC46J24oxrMq6Bs-33" value="Order" style="whiteSpace=wrap;html=1;aspect=fixed;" parent="1" vertex="1">
          <mxGeometry x="1830" y="260" width="80" height="80" as="geometry" />
        </mxCell>
        <mxCell id="DTtZkwZOQEOStWwTzAfP-31" style="edgeStyle=orthogonalEdgeStyle;rounded=0;orthogonalLoop=1;jettySize=auto;html=1;exitX=0.5;exitY=0;exitDx=0;exitDy=0;entryX=1;entryY=0.5;entryDx=0;entryDy=0;fillColor=#FF0000;strokeColor=#FF0000;" parent="1" source="ToU6loC46J24oxrMq6Bs-38" target="ToU6loC46J24oxrMq6Bs-40" edge="1">
          <mxGeometry relative="1" as="geometry" />
        </mxCell>
        <mxCell id="EyuBBjKlVLC_FoclDnfz-6" style="edgeStyle=orthogonalEdgeStyle;rounded=0;orthogonalLoop=1;jettySize=auto;html=1;exitX=0.5;exitY=1;exitDx=0;exitDy=0;strokeColor=#FF0000;" parent="1" source="ToU6loC46J24oxrMq6Bs-38" target="ToU6loC46J24oxrMq6Bs-33" edge="1">
          <mxGeometry relative="1" as="geometry" />
        </mxCell>
        <mxCell id="ToU6loC46J24oxrMq6Bs-38" value="has" style="rhombus;whiteSpace=wrap;html=1;" parent="1" vertex="1">
          <mxGeometry x="1830" y="62" width="80" height="80" as="geometry" />
        </mxCell>
        <mxCell id="ToU6loC46J24oxrMq6Bs-40" value="Shipment" style="whiteSpace=wrap;html=1;aspect=fixed;" parent="1" vertex="1">
          <mxGeometry x="1715" y="-45" width="80" height="80" as="geometry" />
        </mxCell>
        <mxCell id="ToU6loC46J24oxrMq6Bs-220" style="edgeStyle=orthogonalEdgeStyle;rounded=0;orthogonalLoop=1;jettySize=auto;html=1;exitX=1;exitY=0.5;exitDx=0;exitDy=0;entryX=0;entryY=0.5;entryDx=0;entryDy=0;strokeColor=#FF0000;" parent="1" source="ToU6loC46J24oxrMq6Bs-43" target="ToU6loC46J24oxrMq6Bs-45" edge="1">
          <mxGeometry relative="1" as="geometry" />
        </mxCell>
        <mxCell id="EyuBBjKlVLC_FoclDnfz-5" style="edgeStyle=orthogonalEdgeStyle;rounded=0;orthogonalLoop=1;jettySize=auto;html=1;exitX=0;exitY=0.5;exitDx=0;exitDy=0;entryX=1;entryY=0;entryDx=0;entryDy=0;strokeColor=#FF0000;" parent="1" source="ToU6loC46J24oxrMq6Bs-43" target="ToU6loC46J24oxrMq6Bs-33" edge="1">
          <mxGeometry relative="1" as="geometry" />
        </mxCell>
        <mxCell id="ToU6loC46J24oxrMq6Bs-43" value="makes" style="rhombus;whiteSpace=wrap;html=1;" parent="1" vertex="1">
          <mxGeometry x="2180" y="99.94" width="80" height="80" as="geometry" />
        </mxCell>
        <mxCell id="ToU6loC46J24oxrMq6Bs-45" value="Payment" style="whiteSpace=wrap;html=1;aspect=fixed;" parent="1" vertex="1">
          <mxGeometry x="2370" y="99.86999999999995" width="80" height="80" as="geometry" />
        </mxCell>
        <mxCell id="ToU6loC46J24oxrMq6Bs-53" value="" style="edgeStyle=orthogonalEdgeStyle;rounded=0;orthogonalLoop=1;jettySize=auto;html=1;fillColor=#00FF00;strokeColor=#00FF00;" parent="1" source="ToU6loC46J24oxrMq6Bs-49" target="ToU6loC46J24oxrMq6Bs-52" edge="1">
          <mxGeometry relative="1" as="geometry" />
        </mxCell>
        <mxCell id="ToU6loC46J24oxrMq6Bs-49" value="contains" style="rhombus;whiteSpace=wrap;html=1;" parent="1" vertex="1">
          <mxGeometry x="2180" y="971.5" width="80" height="80" as="geometry" />
        </mxCell>
        <mxCell id="ToU6loC46J24oxrMq6Bs-52" value="Order_Item" style="whiteSpace=wrap;html=1;aspect=fixed;" parent="1" vertex="1">
          <mxGeometry x="2400" y="1034" width="80" height="80" as="geometry" />
        </mxCell>
        <mxCell id="ToU6loC46J24oxrMq6Bs-296" style="edgeStyle=orthogonalEdgeStyle;rounded=0;orthogonalLoop=1;jettySize=auto;html=1;exitX=0;exitY=0.5;exitDx=0;exitDy=0;entryX=1;entryY=0.5;entryDx=0;entryDy=0;strokeColor=#0000FF;" parent="1" source="ToU6loC46J24oxrMq6Bs-55" target="ToU6loC46J24oxrMq6Bs-66" edge="1">
          <mxGeometry relative="1" as="geometry" />
        </mxCell>
        <mxCell id="ToU6loC46J24oxrMq6Bs-55" value="Wishlist" style="whiteSpace=wrap;html=1;aspect=fixed;" parent="1" vertex="1">
          <mxGeometry x="750" y="730" width="80" height="80" as="geometry" />
        </mxCell>
        <mxCell id="ToU6loC46J24oxrMq6Bs-202" style="edgeStyle=orthogonalEdgeStyle;rounded=0;orthogonalLoop=1;jettySize=auto;html=1;exitX=0.5;exitY=1;exitDx=0;exitDy=0;" parent="1" source="ToU6loC46J24oxrMq6Bs-56" target="ToU6loC46J24oxrMq6Bs-55" edge="1">
          <mxGeometry relative="1" as="geometry" />
        </mxCell>
        <mxCell id="ToU6loC46J24oxrMq6Bs-56" value="&lt;div&gt;&lt;b&gt;&lt;u&gt;Wishlist_ID&lt;/u&gt;&lt;/b&gt;&lt;/div&gt;" style="ellipse;whiteSpace=wrap;html=1;" parent="1" vertex="1">
          <mxGeometry x="730" y="670" width="120" height="40" as="geometry" />
        </mxCell>
        <mxCell id="ToU6loC46J24oxrMq6Bs-298" style="edgeStyle=orthogonalEdgeStyle;rounded=0;orthogonalLoop=1;jettySize=auto;html=1;exitX=0;exitY=0.5;exitDx=0;exitDy=0;strokeColor=#FF0000;" parent="1" source="ToU6loC46J24oxrMq6Bs-57" target="ToU6loC46J24oxrMq6Bs-55" edge="1">
          <mxGeometry relative="1" as="geometry" />
        </mxCell>
        <mxCell id="ToU6loC46J24oxrMq6Bs-57" value="has" style="rhombus;whiteSpace=wrap;html=1;" parent="1" vertex="1">
          <mxGeometry x="920" y="730" width="80" height="80" as="geometry" />
        </mxCell>
        <mxCell id="ToU6loC46J24oxrMq6Bs-295" style="edgeStyle=orthogonalEdgeStyle;rounded=0;orthogonalLoop=1;jettySize=auto;html=1;exitX=0;exitY=0.5;exitDx=0;exitDy=0;strokeColor=#00FF00;" parent="1" source="ToU6loC46J24oxrMq6Bs-61" target="ToU6loC46J24oxrMq6Bs-69" edge="1">
          <mxGeometry relative="1" as="geometry" />
        </mxCell>
        <mxCell id="ToU6loC46J24oxrMq6Bs-61" value="Wishlist_Item" style="whiteSpace=wrap;html=1;aspect=fixed;" parent="1" vertex="1">
          <mxGeometry x="430" y="730" width="80" height="80" as="geometry" />
        </mxCell>
        <mxCell id="ToU6loC46J24oxrMq6Bs-201" style="edgeStyle=orthogonalEdgeStyle;rounded=0;orthogonalLoop=1;jettySize=auto;html=1;exitX=0.5;exitY=1;exitDx=0;exitDy=0;" parent="1" source="ToU6loC46J24oxrMq6Bs-62" target="ToU6loC46J24oxrMq6Bs-61" edge="1">
          <mxGeometry relative="1" as="geometry" />
        </mxCell>
        <mxCell id="ToU6loC46J24oxrMq6Bs-62" value="&lt;div&gt;&lt;b&gt;&lt;u&gt;Wishlist_Item_ID&lt;/u&gt;&lt;/b&gt;&lt;/div&gt;" style="ellipse;whiteSpace=wrap;html=1;" parent="1" vertex="1">
          <mxGeometry x="410" y="670" width="120" height="40" as="geometry" />
        </mxCell>
        <mxCell id="ToU6loC46J24oxrMq6Bs-297" style="edgeStyle=orthogonalEdgeStyle;rounded=0;orthogonalLoop=1;jettySize=auto;html=1;entryX=1;entryY=0.5;entryDx=0;entryDy=0;strokeColor=#0000FF;" parent="1" source="ToU6loC46J24oxrMq6Bs-66" target="ToU6loC46J24oxrMq6Bs-61" edge="1">
          <mxGeometry relative="1" as="geometry" />
        </mxCell>
        <mxCell id="ToU6loC46J24oxrMq6Bs-66" value="contains" style="rhombus;whiteSpace=wrap;html=1;" parent="1" vertex="1">
          <mxGeometry x="580" y="730" width="80" height="80" as="geometry" />
        </mxCell>
        <mxCell id="ToU6loC46J24oxrMq6Bs-294" style="edgeStyle=orthogonalEdgeStyle;rounded=0;orthogonalLoop=1;jettySize=auto;html=1;exitX=0.5;exitY=1;exitDx=0;exitDy=0;strokeColor=#00FF00;" parent="1" source="ToU6loC46J24oxrMq6Bs-69" target="ToU6loC46J24oxrMq6Bs-27" edge="1">
          <mxGeometry relative="1" as="geometry" />
        </mxCell>
        <mxCell id="ToU6loC46J24oxrMq6Bs-69" value="refers to" style="rhombus;whiteSpace=wrap;html=1;" parent="1" vertex="1">
          <mxGeometry x="260" y="730" width="80" height="80" as="geometry" />
        </mxCell>
        <mxCell id="DTtZkwZOQEOStWwTzAfP-104" style="edgeStyle=orthogonalEdgeStyle;rounded=0;orthogonalLoop=1;jettySize=auto;html=1;exitX=0.5;exitY=1;exitDx=0;exitDy=0;" parent="1" source="ToU6loC46J24oxrMq6Bs-82" edge="1">
          <mxGeometry relative="1" as="geometry">
            <mxPoint x="250" y="-115" as="targetPoint" />
          </mxGeometry>
        </mxCell>
        <mxCell id="ToU6loC46J24oxrMq6Bs-82" value="&lt;div&gt;&lt;b&gt;&lt;u&gt;User_ID&lt;/u&gt;&lt;/b&gt;&lt;/div&gt;" style="ellipse;whiteSpace=wrap;html=1;" parent="1" vertex="1">
          <mxGeometry x="-185.00000000000003" y="-227.5" width="90" height="35" as="geometry" />
        </mxCell>
        <mxCell id="DTtZkwZOQEOStWwTzAfP-105" style="edgeStyle=orthogonalEdgeStyle;rounded=0;orthogonalLoop=1;jettySize=auto;html=1;exitX=0.5;exitY=1;exitDx=0;exitDy=0;entryX=0.5;entryY=0;entryDx=0;entryDy=0;" parent="1" source="ToU6loC46J24oxrMq6Bs-83" edge="1">
          <mxGeometry relative="1" as="geometry">
            <mxPoint x="250" y="-115" as="targetPoint" />
          </mxGeometry>
        </mxCell>
        <mxCell id="ToU6loC46J24oxrMq6Bs-83" value="&lt;div&gt;email&lt;/div&gt;" style="ellipse;whiteSpace=wrap;html=1;" parent="1" vertex="1">
          <mxGeometry x="-85" y="-227.5" width="90" height="35" as="geometry" />
        </mxCell>
        <mxCell id="DTtZkwZOQEOStWwTzAfP-106" style="edgeStyle=orthogonalEdgeStyle;rounded=0;orthogonalLoop=1;jettySize=auto;html=1;exitX=0.5;exitY=1;exitDx=0;exitDy=0;entryX=0.5;entryY=0;entryDx=0;entryDy=0;" parent="1" source="ToU6loC46J24oxrMq6Bs-84" edge="1">
          <mxGeometry relative="1" as="geometry">
            <mxPoint x="250" y="-115" as="targetPoint" />
          </mxGeometry>
        </mxCell>
        <mxCell id="ToU6loC46J24oxrMq6Bs-84" value="password" style="ellipse;whiteSpace=wrap;html=1;" parent="1" vertex="1">
          <mxGeometry x="15" y="-227.5" width="90" height="35" as="geometry" />
        </mxCell>
        <mxCell id="DTtZkwZOQEOStWwTzAfP-107" style="edgeStyle=orthogonalEdgeStyle;rounded=0;orthogonalLoop=1;jettySize=auto;html=1;exitX=0.5;exitY=1;exitDx=0;exitDy=0;entryX=0.5;entryY=0;entryDx=0;entryDy=0;" parent="1" source="ToU6loC46J24oxrMq6Bs-85" edge="1">
          <mxGeometry relative="1" as="geometry">
            <mxPoint x="250" y="-115" as="targetPoint" />
          </mxGeometry>
        </mxCell>
        <mxCell id="ToU6loC46J24oxrMq6Bs-85" value="first_name" style="ellipse;whiteSpace=wrap;html=1;" parent="1" vertex="1">
          <mxGeometry x="110" y="-227.5" width="90" height="35" as="geometry" />
        </mxCell>
        <mxCell id="DTtZkwZOQEOStWwTzAfP-108" style="edgeStyle=orthogonalEdgeStyle;rounded=0;orthogonalLoop=1;jettySize=auto;html=1;exitX=0.5;exitY=1;exitDx=0;exitDy=0;entryX=0.5;entryY=0;entryDx=0;entryDy=0;" parent="1" source="ToU6loC46J24oxrMq6Bs-86" edge="1">
          <mxGeometry relative="1" as="geometry">
            <mxPoint x="250" y="-115" as="targetPoint" />
          </mxGeometry>
        </mxCell>
        <mxCell id="ToU6loC46J24oxrMq6Bs-86" value="last_name" style="ellipse;whiteSpace=wrap;html=1;" parent="1" vertex="1">
          <mxGeometry x="205" y="-227.5" width="90" height="35" as="geometry" />
        </mxCell>
        <mxCell id="DTtZkwZOQEOStWwTzAfP-109" style="edgeStyle=orthogonalEdgeStyle;rounded=0;orthogonalLoop=1;jettySize=auto;html=1;exitX=0.5;exitY=1;exitDx=0;exitDy=0;entryX=0.5;entryY=0;entryDx=0;entryDy=0;" parent="1" source="ToU6loC46J24oxrMq6Bs-87" edge="1">
          <mxGeometry relative="1" as="geometry">
            <mxPoint x="250" y="-115" as="targetPoint" />
          </mxGeometry>
        </mxCell>
        <mxCell id="ToU6loC46J24oxrMq6Bs-87" value="&lt;div&gt;phone_number&lt;/div&gt;" style="ellipse;whiteSpace=wrap;html=1;" parent="1" vertex="1">
          <mxGeometry x="305" y="-227.5" width="90" height="35" as="geometry" />
        </mxCell>
        <mxCell id="DTtZkwZOQEOStWwTzAfP-110" style="edgeStyle=orthogonalEdgeStyle;rounded=0;orthogonalLoop=1;jettySize=auto;html=1;exitX=0.5;exitY=1;exitDx=0;exitDy=0;entryX=0.5;entryY=0;entryDx=0;entryDy=0;" parent="1" source="ToU6loC46J24oxrMq6Bs-89" edge="1">
          <mxGeometry relative="1" as="geometry">
            <mxPoint x="250" y="-115" as="targetPoint" />
          </mxGeometry>
        </mxCell>
        <mxCell id="ToU6loC46J24oxrMq6Bs-89" value="&lt;div&gt;role&lt;/div&gt;" style="ellipse;whiteSpace=wrap;html=1;" parent="1" vertex="1">
          <mxGeometry x="400" y="-227.5" width="90" height="35" as="geometry" />
        </mxCell>
        <mxCell id="DTtZkwZOQEOStWwTzAfP-112" style="edgeStyle=orthogonalEdgeStyle;rounded=0;orthogonalLoop=1;jettySize=auto;html=1;exitX=0.5;exitY=1;exitDx=0;exitDy=0;entryX=0.5;entryY=0;entryDx=0;entryDy=0;" parent="1" source="ToU6loC46J24oxrMq6Bs-90" edge="1">
          <mxGeometry relative="1" as="geometry">
            <mxPoint x="250" y="-115" as="targetPoint" />
          </mxGeometry>
        </mxCell>
        <mxCell id="ToU6loC46J24oxrMq6Bs-90" value="account_status" style="ellipse;whiteSpace=wrap;html=1;" parent="1" vertex="1">
          <mxGeometry x="499" y="-227.5" width="90" height="35" as="geometry" />
        </mxCell>
        <mxCell id="ToU6loC46J24oxrMq6Bs-131" style="edgeStyle=orthogonalEdgeStyle;rounded=0;orthogonalLoop=1;jettySize=auto;html=1;exitX=0.5;exitY=1;exitDx=0;exitDy=0;entryX=0.5;entryY=0;entryDx=0;entryDy=0;" parent="1" source="ToU6loC46J24oxrMq6Bs-109" edge="1">
          <mxGeometry relative="1" as="geometry">
            <mxPoint x="1325" y="-45" as="targetPoint" />
          </mxGeometry>
        </mxCell>
        <mxCell id="ToU6loC46J24oxrMq6Bs-109" value="&lt;div&gt;city&lt;/div&gt;" style="ellipse;whiteSpace=wrap;html=1;" parent="1" vertex="1">
          <mxGeometry x="1230" y="-115" width="90" height="35" as="geometry" />
        </mxCell>
        <mxCell id="ToU6loC46J24oxrMq6Bs-133" style="edgeStyle=orthogonalEdgeStyle;rounded=0;orthogonalLoop=1;jettySize=auto;html=1;exitX=0.5;exitY=1;exitDx=0;exitDy=0;entryX=0.5;entryY=0;entryDx=0;entryDy=0;" parent="1" source="ToU6loC46J24oxrMq6Bs-111" edge="1">
          <mxGeometry relative="1" as="geometry">
            <mxPoint x="1325" y="-45" as="targetPoint" />
          </mxGeometry>
        </mxCell>
        <mxCell id="ToU6loC46J24oxrMq6Bs-111" value="zip code" style="ellipse;whiteSpace=wrap;html=1;" parent="1" vertex="1">
          <mxGeometry x="1330" y="-115" width="90" height="35" as="geometry" />
        </mxCell>
        <mxCell id="ToU6loC46J24oxrMq6Bs-128" style="edgeStyle=orthogonalEdgeStyle;rounded=0;orthogonalLoop=1;jettySize=auto;html=1;exitX=0.5;exitY=1;exitDx=0;exitDy=0;entryX=0.5;entryY=0;entryDx=0;entryDy=0;" parent="1" source="ToU6loC46J24oxrMq6Bs-113" edge="1">
          <mxGeometry relative="1" as="geometry">
            <mxPoint x="1325" y="-45" as="targetPoint" />
            <Array as="points">
              <mxPoint x="1475" y="-60" />
              <mxPoint x="1326" y="-60" />
              <mxPoint x="1326" y="-45" />
            </Array>
          </mxGeometry>
        </mxCell>
        <mxCell id="ToU6loC46J24oxrMq6Bs-113" value="street" style="ellipse;whiteSpace=wrap;html=1;" parent="1" vertex="1">
          <mxGeometry x="1430" y="-115" width="90" height="35" as="geometry" />
        </mxCell>
        <mxCell id="ToU6loC46J24oxrMq6Bs-132" style="edgeStyle=orthogonalEdgeStyle;rounded=0;orthogonalLoop=1;jettySize=auto;html=1;exitX=0.5;exitY=1;exitDx=0;exitDy=0;entryX=0.5;entryY=0;entryDx=0;entryDy=0;" parent="1" source="ToU6loC46J24oxrMq6Bs-124" edge="1">
          <mxGeometry relative="1" as="geometry">
            <mxPoint x="1325" y="-45" as="targetPoint" />
            <Array as="points">
              <mxPoint x="1175" y="-60" />
              <mxPoint x="1326" y="-60" />
              <mxPoint x="1326" y="-45" />
            </Array>
          </mxGeometry>
        </mxCell>
        <mxCell id="ToU6loC46J24oxrMq6Bs-124" value="state" style="ellipse;whiteSpace=wrap;html=1;" parent="1" vertex="1">
          <mxGeometry x="1130" y="-115" width="90" height="35" as="geometry" />
        </mxCell>
        <mxCell id="DTtZkwZOQEOStWwTzAfP-113" style="edgeStyle=orthogonalEdgeStyle;rounded=0;orthogonalLoop=1;jettySize=auto;html=1;exitX=0.5;exitY=1;exitDx=0;exitDy=0;entryX=0.5;entryY=0;entryDx=0;entryDy=0;" parent="1" source="ToU6loC46J24oxrMq6Bs-135" edge="1">
          <mxGeometry relative="1" as="geometry">
            <mxPoint x="250" y="-115" as="targetPoint" />
          </mxGeometry>
        </mxCell>
        <mxCell id="ToU6loC46J24oxrMq6Bs-135" value="birthday" style="ellipse;whiteSpace=wrap;html=1;" parent="1" vertex="1">
          <mxGeometry x="595" y="-227.5" width="90" height="35" as="geometry" />
        </mxCell>
        <mxCell id="DTtZkwZOQEOStWwTzAfP-114" style="edgeStyle=orthogonalEdgeStyle;rounded=0;orthogonalLoop=1;jettySize=auto;html=1;exitX=0.5;exitY=1;exitDx=0;exitDy=0;" parent="1" source="ToU6loC46J24oxrMq6Bs-139" target="ToU6loC46J24oxrMq6Bs-135" edge="1">
          <mxGeometry relative="1" as="geometry" />
        </mxCell>
        <mxCell id="ToU6loC46J24oxrMq6Bs-139" value="age" style="ellipse;whiteSpace=wrap;html=1;dashed=1;" parent="1" vertex="1">
          <mxGeometry x="595" y="-297.5" width="90" height="35" as="geometry" />
        </mxCell>
        <mxCell id="ToU6loC46J24oxrMq6Bs-144" style="edgeStyle=orthogonalEdgeStyle;rounded=0;orthogonalLoop=1;jettySize=auto;html=1;exitX=1;exitY=0.5;exitDx=0;exitDy=0;entryX=0;entryY=0.5;entryDx=0;entryDy=0;" parent="1" source="ToU6loC46J24oxrMq6Bs-141" target="ToU6loC46J24oxrMq6Bs-22" edge="1">
          <mxGeometry relative="1" as="geometry" />
        </mxCell>
        <mxCell id="ToU6loC46J24oxrMq6Bs-141" value="&lt;div&gt;&lt;b&gt;&lt;u&gt;Cart_Item_ID&lt;/u&gt;&lt;/b&gt;&lt;/div&gt;" style="ellipse;whiteSpace=wrap;html=1;" parent="1" vertex="1">
          <mxGeometry x="-180" y="720" width="90" height="35" as="geometry" />
        </mxCell>
        <mxCell id="ToU6loC46J24oxrMq6Bs-143" style="edgeStyle=orthogonalEdgeStyle;rounded=0;orthogonalLoop=1;jettySize=auto;html=1;" parent="1" source="ToU6loC46J24oxrMq6Bs-142" target="ToU6loC46J24oxrMq6Bs-22" edge="1">
          <mxGeometry relative="1" as="geometry" />
        </mxCell>
        <mxCell id="ToU6loC46J24oxrMq6Bs-142" value="&lt;div&gt;quantity&lt;/div&gt;" style="ellipse;whiteSpace=wrap;html=1;" parent="1" vertex="1">
          <mxGeometry x="-180" y="765" width="90" height="35" as="geometry" />
        </mxCell>
        <mxCell id="ToU6loC46J24oxrMq6Bs-146" style="edgeStyle=orthogonalEdgeStyle;rounded=0;orthogonalLoop=1;jettySize=auto;html=1;exitX=0;exitY=0.5;exitDx=0;exitDy=0;entryX=1;entryY=0.5;entryDx=0;entryDy=0;" parent="1" source="ToU6loC46J24oxrMq6Bs-145" target="ToU6loC46J24oxrMq6Bs-15" edge="1">
          <mxGeometry relative="1" as="geometry" />
        </mxCell>
        <mxCell id="ToU6loC46J24oxrMq6Bs-145" value="&lt;div&gt;&lt;b&gt;&lt;u&gt;Cart_ID&lt;/u&gt;&lt;/b&gt;&lt;/div&gt;" style="ellipse;whiteSpace=wrap;html=1;" parent="1" vertex="1">
          <mxGeometry x="760" y="542.5" width="90" height="35" as="geometry" />
        </mxCell>
        <mxCell id="ToU6loC46J24oxrMq6Bs-192" style="edgeStyle=orthogonalEdgeStyle;rounded=0;orthogonalLoop=1;jettySize=auto;html=1;exitX=0.5;exitY=0;exitDx=0;exitDy=0;entryX=0.5;entryY=1;entryDx=0;entryDy=0;" parent="1" source="ToU6loC46J24oxrMq6Bs-166" target="ToU6loC46J24oxrMq6Bs-27" edge="1">
          <mxGeometry relative="1" as="geometry">
            <mxPoint x="300" y="1506.06" as="targetPoint" />
          </mxGeometry>
        </mxCell>
        <mxCell id="ToU6loC46J24oxrMq6Bs-166" value="&lt;div&gt;description&lt;/div&gt;" style="ellipse;whiteSpace=wrap;html=1;" parent="1" vertex="1">
          <mxGeometry x="190" y="1561.06" width="90" height="35" as="geometry" />
        </mxCell>
        <mxCell id="ToU6loC46J24oxrMq6Bs-194" style="edgeStyle=orthogonalEdgeStyle;rounded=0;orthogonalLoop=1;jettySize=auto;html=1;exitX=0.5;exitY=0;exitDx=0;exitDy=0;entryX=0.5;entryY=1;entryDx=0;entryDy=0;" parent="1" source="ToU6loC46J24oxrMq6Bs-167" target="ToU6loC46J24oxrMq6Bs-27" edge="1">
          <mxGeometry relative="1" as="geometry">
            <mxPoint x="300" y="1506.06" as="targetPoint" />
          </mxGeometry>
        </mxCell>
        <mxCell id="ToU6loC46J24oxrMq6Bs-167" value="price" style="ellipse;whiteSpace=wrap;html=1;" parent="1" vertex="1">
          <mxGeometry x="290" y="1561.06" width="90" height="35" as="geometry" />
        </mxCell>
        <mxCell id="ToU6loC46J24oxrMq6Bs-197" style="edgeStyle=orthogonalEdgeStyle;rounded=0;orthogonalLoop=1;jettySize=auto;html=1;exitX=0.5;exitY=0;exitDx=0;exitDy=0;entryX=0.5;entryY=1;entryDx=0;entryDy=0;" parent="1" source="ToU6loC46J24oxrMq6Bs-175" target="ToU6loC46J24oxrMq6Bs-27" edge="1">
          <mxGeometry relative="1" as="geometry">
            <mxPoint x="300" y="1506.06" as="targetPoint" />
          </mxGeometry>
        </mxCell>
        <mxCell id="ToU6loC46J24oxrMq6Bs-175" value="weight" style="ellipse;whiteSpace=wrap;html=1;" parent="1" vertex="1">
          <mxGeometry x="490" y="1561.06" width="90" height="35" as="geometry" />
        </mxCell>
        <mxCell id="ToU6loC46J24oxrMq6Bs-198" style="edgeStyle=orthogonalEdgeStyle;rounded=0;orthogonalLoop=1;jettySize=auto;html=1;exitX=0.5;exitY=0;exitDx=0;exitDy=0;entryX=0.5;entryY=1;entryDx=0;entryDy=0;" parent="1" source="ToU6loC46J24oxrMq6Bs-176" target="ToU6loC46J24oxrMq6Bs-27" edge="1">
          <mxGeometry relative="1" as="geometry">
            <mxPoint x="300" y="1506.06" as="targetPoint" />
          </mxGeometry>
        </mxCell>
        <mxCell id="ToU6loC46J24oxrMq6Bs-176" value="&lt;div&gt;dimensions&lt;/div&gt;" style="ellipse;whiteSpace=wrap;html=1;" parent="1" vertex="1">
          <mxGeometry x="590" y="1561.06" width="90" height="35" as="geometry" />
        </mxCell>
        <mxCell id="ToU6loC46J24oxrMq6Bs-187" style="edgeStyle=orthogonalEdgeStyle;rounded=0;orthogonalLoop=1;jettySize=auto;html=1;exitX=0.5;exitY=0;exitDx=0;exitDy=0;entryX=0.5;entryY=1;entryDx=0;entryDy=0;" parent="1" source="ToU6loC46J24oxrMq6Bs-181" target="ToU6loC46J24oxrMq6Bs-27" edge="1">
          <mxGeometry relative="1" as="geometry">
            <mxPoint x="300" y="1506.06" as="targetPoint" />
          </mxGeometry>
        </mxCell>
        <mxCell id="ToU6loC46J24oxrMq6Bs-181" value="&lt;b&gt;&lt;u&gt;Product_ID&lt;/u&gt;&lt;/b&gt;" style="ellipse;whiteSpace=wrap;html=1;" parent="1" vertex="1">
          <mxGeometry x="-110" y="1561.06" width="90" height="35" as="geometry" />
        </mxCell>
        <mxCell id="ToU6loC46J24oxrMq6Bs-189" style="edgeStyle=orthogonalEdgeStyle;rounded=0;orthogonalLoop=1;jettySize=auto;html=1;exitX=0.5;exitY=0;exitDx=0;exitDy=0;entryX=0.5;entryY=1;entryDx=0;entryDy=0;" parent="1" source="ToU6loC46J24oxrMq6Bs-182" target="ToU6loC46J24oxrMq6Bs-27" edge="1">
          <mxGeometry relative="1" as="geometry">
            <mxPoint x="300" y="1506.06" as="targetPoint" />
          </mxGeometry>
        </mxCell>
        <mxCell id="ToU6loC46J24oxrMq6Bs-182" value="SKU" style="ellipse;whiteSpace=wrap;html=1;" parent="1" vertex="1">
          <mxGeometry x="-10" y="1561.06" width="90" height="35" as="geometry" />
        </mxCell>
        <mxCell id="ToU6loC46J24oxrMq6Bs-190" style="edgeStyle=orthogonalEdgeStyle;rounded=0;orthogonalLoop=1;jettySize=auto;html=1;exitX=0.5;exitY=0;exitDx=0;exitDy=0;entryX=0.5;entryY=1;entryDx=0;entryDy=0;" parent="1" source="ToU6loC46J24oxrMq6Bs-183" target="ToU6loC46J24oxrMq6Bs-27" edge="1">
          <mxGeometry relative="1" as="geometry">
            <mxPoint x="300" y="1506.06" as="targetPoint" />
          </mxGeometry>
        </mxCell>
        <mxCell id="ToU6loC46J24oxrMq6Bs-183" value="&lt;div&gt;product name&lt;/div&gt;" style="ellipse;whiteSpace=wrap;html=1;" parent="1" vertex="1">
          <mxGeometry x="90" y="1561.06" width="90" height="35" as="geometry" />
        </mxCell>
        <mxCell id="DTtZkwZOQEOStWwTzAfP-54" style="edgeStyle=orthogonalEdgeStyle;rounded=0;orthogonalLoop=1;jettySize=auto;html=1;exitX=0;exitY=0.5;exitDx=0;exitDy=0;entryX=1;entryY=0.5;entryDx=0;entryDy=0;" parent="1" source="ToU6loC46J24oxrMq6Bs-203" target="ToU6loC46J24oxrMq6Bs-33" edge="1">
          <mxGeometry relative="1" as="geometry" />
        </mxCell>
        <mxCell id="ToU6loC46J24oxrMq6Bs-203" value="status" style="ellipse;whiteSpace=wrap;html=1;" parent="1" vertex="1">
          <mxGeometry x="1960" y="349.87" width="90" height="35" as="geometry" />
        </mxCell>
        <mxCell id="DTtZkwZOQEOStWwTzAfP-51" style="edgeStyle=orthogonalEdgeStyle;rounded=0;orthogonalLoop=1;jettySize=auto;html=1;exitX=0;exitY=0.5;exitDx=0;exitDy=0;entryX=1;entryY=0.5;entryDx=0;entryDy=0;" parent="1" source="ToU6loC46J24oxrMq6Bs-209" target="ToU6loC46J24oxrMq6Bs-33" edge="1">
          <mxGeometry relative="1" as="geometry" />
        </mxCell>
        <mxCell id="ToU6loC46J24oxrMq6Bs-209" value="&lt;b&gt;&lt;u&gt;Order_ID&lt;/u&gt;&lt;/b&gt;" style="ellipse;whiteSpace=wrap;html=1;" parent="1" vertex="1">
          <mxGeometry x="1960" y="215.12" width="90" height="35" as="geometry" />
        </mxCell>
        <mxCell id="DTtZkwZOQEOStWwTzAfP-52" style="edgeStyle=orthogonalEdgeStyle;rounded=0;orthogonalLoop=1;jettySize=auto;html=1;exitX=0;exitY=0.5;exitDx=0;exitDy=0;entryX=1;entryY=0.5;entryDx=0;entryDy=0;" parent="1" source="ToU6loC46J24oxrMq6Bs-210" target="ToU6loC46J24oxrMq6Bs-33" edge="1">
          <mxGeometry relative="1" as="geometry" />
        </mxCell>
        <mxCell id="ToU6loC46J24oxrMq6Bs-210" value="&lt;div&gt;order_date&lt;/div&gt;" style="ellipse;whiteSpace=wrap;html=1;" parent="1" vertex="1">
          <mxGeometry x="1960" y="257.62" width="90" height="35" as="geometry" />
        </mxCell>
        <mxCell id="DTtZkwZOQEOStWwTzAfP-53" style="edgeStyle=orthogonalEdgeStyle;rounded=0;orthogonalLoop=1;jettySize=auto;html=1;exitX=0;exitY=0.5;exitDx=0;exitDy=0;entryX=1;entryY=0.5;entryDx=0;entryDy=0;" parent="1" source="ToU6loC46J24oxrMq6Bs-211" target="ToU6loC46J24oxrMq6Bs-33" edge="1">
          <mxGeometry relative="1" as="geometry" />
        </mxCell>
        <mxCell id="ToU6loC46J24oxrMq6Bs-211" value="total_price" style="ellipse;whiteSpace=wrap;html=1;" parent="1" vertex="1">
          <mxGeometry x="1960" y="302.62" width="90" height="35" as="geometry" />
        </mxCell>
        <mxCell id="DTtZkwZOQEOStWwTzAfP-41" style="edgeStyle=orthogonalEdgeStyle;rounded=0;orthogonalLoop=1;jettySize=auto;html=1;exitX=0.5;exitY=1;exitDx=0;exitDy=0;entryX=0.5;entryY=0;entryDx=0;entryDy=0;" parent="1" source="ToU6loC46J24oxrMq6Bs-221" target="ToU6loC46J24oxrMq6Bs-40" edge="1">
          <mxGeometry relative="1" as="geometry">
            <Array as="points">
              <mxPoint x="1615" y="-60" />
              <mxPoint x="1755" y="-60" />
            </Array>
          </mxGeometry>
        </mxCell>
        <mxCell id="ToU6loC46J24oxrMq6Bs-221" value="&lt;b&gt;&lt;u&gt;Shipment_ID&lt;/u&gt;&lt;/b&gt;" style="ellipse;whiteSpace=wrap;html=1;" parent="1" vertex="1">
          <mxGeometry x="1565" y="-115" width="100" height="35" as="geometry" />
        </mxCell>
        <mxCell id="DTtZkwZOQEOStWwTzAfP-39" style="edgeStyle=orthogonalEdgeStyle;rounded=0;orthogonalLoop=1;jettySize=auto;html=1;exitX=0.5;exitY=1;exitDx=0;exitDy=0;entryX=0.5;entryY=0;entryDx=0;entryDy=0;" parent="1" source="ToU6loC46J24oxrMq6Bs-222" target="ToU6loC46J24oxrMq6Bs-40" edge="1">
          <mxGeometry relative="1" as="geometry" />
        </mxCell>
        <mxCell id="ToU6loC46J24oxrMq6Bs-222" value="shipment_date" style="ellipse;whiteSpace=wrap;html=1;" parent="1" vertex="1">
          <mxGeometry x="1670" y="-115" width="100" height="35" as="geometry" />
        </mxCell>
        <mxCell id="DTtZkwZOQEOStWwTzAfP-38" style="edgeStyle=orthogonalEdgeStyle;rounded=0;orthogonalLoop=1;jettySize=auto;html=1;exitX=0.5;exitY=1;exitDx=0;exitDy=0;entryX=0.5;entryY=0;entryDx=0;entryDy=0;" parent="1" source="ToU6loC46J24oxrMq6Bs-223" target="ToU6loC46J24oxrMq6Bs-40" edge="1">
          <mxGeometry relative="1" as="geometry" />
        </mxCell>
        <mxCell id="ToU6loC46J24oxrMq6Bs-223" value="carrier" style="ellipse;whiteSpace=wrap;html=1;" parent="1" vertex="1">
          <mxGeometry x="1775" y="-115" width="100" height="35" as="geometry" />
        </mxCell>
        <mxCell id="DTtZkwZOQEOStWwTzAfP-42" style="edgeStyle=orthogonalEdgeStyle;rounded=0;orthogonalLoop=1;jettySize=auto;html=1;exitX=0.5;exitY=1;exitDx=0;exitDy=0;entryX=0.5;entryY=0;entryDx=0;entryDy=0;" parent="1" source="ToU6loC46J24oxrMq6Bs-224" target="ToU6loC46J24oxrMq6Bs-40" edge="1">
          <mxGeometry relative="1" as="geometry">
            <Array as="points">
              <mxPoint x="1935" y="-60" />
              <mxPoint x="1755" y="-60" />
            </Array>
          </mxGeometry>
        </mxCell>
        <mxCell id="ToU6loC46J24oxrMq6Bs-224" value="tracking_number" style="ellipse;whiteSpace=wrap;html=1;" parent="1" vertex="1">
          <mxGeometry x="1885" y="-115" width="100" height="35" as="geometry" />
        </mxCell>
        <mxCell id="ToU6loC46J24oxrMq6Bs-257" style="edgeStyle=orthogonalEdgeStyle;rounded=0;orthogonalLoop=1;jettySize=auto;html=1;exitX=1;exitY=0.5;exitDx=0;exitDy=0;entryX=0;entryY=0.5;entryDx=0;entryDy=0;strokeColor=#00FF00;" parent="1" source="ToU6loC46J24oxrMq6Bs-251" target="ToU6loC46J24oxrMq6Bs-256" edge="1">
          <mxGeometry relative="1" as="geometry">
            <mxPoint x="1465" y="1411.51" as="sourcePoint" />
          </mxGeometry>
        </mxCell>
        <mxCell id="ToU6loC46J24oxrMq6Bs-251" value="belongs to" style="rhombus;whiteSpace=wrap;html=1;" parent="1" vertex="1">
          <mxGeometry x="1300" y="1371.51" width="80" height="80" as="geometry" />
        </mxCell>
        <mxCell id="ToU6loC46J24oxrMq6Bs-293" style="edgeStyle=orthogonalEdgeStyle;rounded=0;orthogonalLoop=1;jettySize=auto;html=1;exitX=0.5;exitY=1;exitDx=0;exitDy=0;entryX=0.5;entryY=1;entryDx=0;entryDy=0;strokeColor=#0000FF;" parent="1" source="ToU6loC46J24oxrMq6Bs-256" target="ToU6loC46J24oxrMq6Bs-274" edge="1">
          <mxGeometry relative="1" as="geometry" />
        </mxCell>
        <mxCell id="ToU6loC46J24oxrMq6Bs-256" value="Category" style="whiteSpace=wrap;html=1;aspect=fixed;" parent="1" vertex="1">
          <mxGeometry x="1615" y="1371.51" width="80" height="80" as="geometry" />
        </mxCell>
        <mxCell id="GPYepnfZ225K1OBBeHl1-68" style="edgeStyle=orthogonalEdgeStyle;rounded=0;orthogonalLoop=1;jettySize=auto;html=1;exitX=0.5;exitY=1;exitDx=0;exitDy=0;entryX=0.5;entryY=0;entryDx=0;entryDy=0;" parent="1" source="ToU6loC46J24oxrMq6Bs-267" target="ToU6loC46J24oxrMq6Bs-256" edge="1">
          <mxGeometry relative="1" as="geometry" />
        </mxCell>
        <mxCell id="ToU6loC46J24oxrMq6Bs-267" value="&lt;div&gt;name&lt;/div&gt;" style="ellipse;whiteSpace=wrap;html=1;" parent="1" vertex="1">
          <mxGeometry x="1610" y="1291.51" width="90" height="35" as="geometry" />
        </mxCell>
        <mxCell id="GPYepnfZ225K1OBBeHl1-69" style="edgeStyle=orthogonalEdgeStyle;rounded=0;orthogonalLoop=1;jettySize=auto;html=1;exitX=0.5;exitY=1;exitDx=0;exitDy=0;entryX=0.5;entryY=0;entryDx=0;entryDy=0;" parent="1" source="ToU6loC46J24oxrMq6Bs-269" target="ToU6loC46J24oxrMq6Bs-256" edge="1">
          <mxGeometry relative="1" as="geometry" />
        </mxCell>
        <mxCell id="ToU6loC46J24oxrMq6Bs-269" value="description" style="ellipse;whiteSpace=wrap;html=1;" parent="1" vertex="1">
          <mxGeometry x="1710" y="1291.51" width="90" height="35" as="geometry" />
        </mxCell>
        <mxCell id="GPYepnfZ225K1OBBeHl1-67" style="edgeStyle=orthogonalEdgeStyle;rounded=0;orthogonalLoop=1;jettySize=auto;html=1;exitX=0.5;exitY=1;exitDx=0;exitDy=0;entryX=0.5;entryY=0;entryDx=0;entryDy=0;" parent="1" source="ToU6loC46J24oxrMq6Bs-273" target="ToU6loC46J24oxrMq6Bs-256" edge="1">
          <mxGeometry relative="1" as="geometry" />
        </mxCell>
        <mxCell id="ToU6loC46J24oxrMq6Bs-273" value="&lt;div&gt;&lt;b&gt;&lt;u&gt;Category_ID&lt;/u&gt;&lt;/b&gt;&lt;/div&gt;" style="ellipse;whiteSpace=wrap;html=1;" parent="1" vertex="1">
          <mxGeometry x="1510" y="1291.51" width="90" height="35" as="geometry" />
        </mxCell>
        <mxCell id="ToU6loC46J24oxrMq6Bs-276" style="edgeStyle=orthogonalEdgeStyle;rounded=0;orthogonalLoop=1;jettySize=auto;html=1;exitX=0;exitY=0.5;exitDx=0;exitDy=0;entryX=1;entryY=0.5;entryDx=0;entryDy=0;strokeColor=#0000FF;" parent="1" source="ToU6loC46J24oxrMq6Bs-274" target="ToU6loC46J24oxrMq6Bs-256" edge="1">
          <mxGeometry relative="1" as="geometry" />
        </mxCell>
        <mxCell id="ToU6loC46J24oxrMq6Bs-274" value="Sub &lt;br&gt;category&lt;br&gt; of" style="rhombus;whiteSpace=wrap;html=1;" parent="1" vertex="1">
          <mxGeometry x="1765" y="1371.51" width="80" height="80" as="geometry" />
        </mxCell>
        <mxCell id="ToU6loC46J24oxrMq6Bs-277" style="edgeStyle=orthogonalEdgeStyle;rounded=0;orthogonalLoop=1;jettySize=auto;html=1;exitX=0;exitY=0.5;exitDx=0;exitDy=0;entryX=1;entryY=0.5;entryDx=0;entryDy=0;" parent="1" source="ToU6loC46J24oxrMq6Bs-278" target="ToU6loC46J24oxrMq6Bs-45" edge="1">
          <mxGeometry relative="1" as="geometry">
            <mxPoint x="2490" y="139.74999999999994" as="targetPoint" />
          </mxGeometry>
        </mxCell>
        <mxCell id="ToU6loC46J24oxrMq6Bs-278" value="&lt;b&gt;&lt;u&gt;Payment_ID&lt;/u&gt;&lt;/b&gt;" style="ellipse;whiteSpace=wrap;html=1;" parent="1" vertex="1">
          <mxGeometry x="2540" y="34.99999999999994" width="110" height="35" as="geometry" />
        </mxCell>
        <mxCell id="ToU6loC46J24oxrMq6Bs-279" style="edgeStyle=orthogonalEdgeStyle;rounded=0;orthogonalLoop=1;jettySize=auto;html=1;exitX=0;exitY=0.5;exitDx=0;exitDy=0;entryX=1;entryY=0.5;entryDx=0;entryDy=0;" parent="1" source="ToU6loC46J24oxrMq6Bs-280" target="ToU6loC46J24oxrMq6Bs-45" edge="1">
          <mxGeometry relative="1" as="geometry">
            <mxPoint x="2490" y="139.74999999999994" as="targetPoint" />
          </mxGeometry>
        </mxCell>
        <mxCell id="ToU6loC46J24oxrMq6Bs-280" value="&lt;div&gt;payment_date&lt;/div&gt;" style="ellipse;whiteSpace=wrap;html=1;" parent="1" vertex="1">
          <mxGeometry x="2540" y="76.99999999999994" width="110" height="35" as="geometry" />
        </mxCell>
        <mxCell id="ToU6loC46J24oxrMq6Bs-281" style="edgeStyle=orthogonalEdgeStyle;rounded=0;orthogonalLoop=1;jettySize=auto;html=1;exitX=0;exitY=0.5;exitDx=0;exitDy=0;entryX=1;entryY=0.5;entryDx=0;entryDy=0;" parent="1" source="ToU6loC46J24oxrMq6Bs-282" target="ToU6loC46J24oxrMq6Bs-45" edge="1">
          <mxGeometry relative="1" as="geometry">
            <mxPoint x="2490" y="139.74999999999994" as="targetPoint" />
          </mxGeometry>
        </mxCell>
        <mxCell id="ToU6loC46J24oxrMq6Bs-282" value="payment_method" style="ellipse;whiteSpace=wrap;html=1;" parent="1" vertex="1">
          <mxGeometry x="2540" y="122.24999999999994" width="110" height="35" as="geometry" />
        </mxCell>
        <mxCell id="ToU6loC46J24oxrMq6Bs-283" style="edgeStyle=orthogonalEdgeStyle;rounded=0;orthogonalLoop=1;jettySize=auto;html=1;exitX=0;exitY=0.5;exitDx=0;exitDy=0;entryX=1;entryY=0.5;entryDx=0;entryDy=0;" parent="1" target="ToU6loC46J24oxrMq6Bs-45" edge="1">
          <mxGeometry relative="1" as="geometry">
            <mxPoint x="2490" y="139.74999999999994" as="targetPoint" />
            <mxPoint x="2540.0000000001" y="182.00000000000006" as="sourcePoint" />
          </mxGeometry>
        </mxCell>
        <mxCell id="ToU6loC46J24oxrMq6Bs-292" style="edgeStyle=orthogonalEdgeStyle;rounded=0;orthogonalLoop=1;jettySize=auto;html=1;exitX=0;exitY=0.5;exitDx=0;exitDy=0;entryX=1;entryY=0.5;entryDx=0;entryDy=0;" parent="1" source="ToU6loC46J24oxrMq6Bs-288" target="ToU6loC46J24oxrMq6Bs-45" edge="1">
          <mxGeometry relative="1" as="geometry" />
        </mxCell>
        <mxCell id="ToU6loC46J24oxrMq6Bs-288" value="transaction_id" style="ellipse;whiteSpace=wrap;html=1;" parent="1" vertex="1">
          <mxGeometry x="2540" y="209.86999999999995" width="110" height="35" as="geometry" />
        </mxCell>
        <mxCell id="ToU6loC46J24oxrMq6Bs-290" value="&lt;div&gt;amount&lt;/div&gt;" style="ellipse;whiteSpace=wrap;html=1;" parent="1" vertex="1">
          <mxGeometry x="2540" y="164.86999999999995" width="110" height="35" as="geometry" />
        </mxCell>
        <mxCell id="ToU6loC46J24oxrMq6Bs-307" style="edgeStyle=orthogonalEdgeStyle;rounded=0;orthogonalLoop=1;jettySize=auto;html=1;exitX=0;exitY=0.5;exitDx=0;exitDy=0;" parent="1" source="ToU6loC46J24oxrMq6Bs-300" edge="1">
          <mxGeometry relative="1" as="geometry">
            <mxPoint x="2480" y="1073.6956521739132" as="targetPoint" />
          </mxGeometry>
        </mxCell>
        <mxCell id="ToU6loC46J24oxrMq6Bs-300" value="quantity" style="ellipse;whiteSpace=wrap;html=1;" parent="1" vertex="1">
          <mxGeometry x="2545" y="1056.5" width="90" height="35" as="geometry" />
        </mxCell>
        <mxCell id="ToU6loC46J24oxrMq6Bs-306" style="edgeStyle=orthogonalEdgeStyle;rounded=0;orthogonalLoop=1;jettySize=auto;html=1;exitX=0;exitY=0.5;exitDx=0;exitDy=0;entryX=1;entryY=0.5;entryDx=0;entryDy=0;" parent="1" source="ToU6loC46J24oxrMq6Bs-301" target="ToU6loC46J24oxrMq6Bs-52" edge="1">
          <mxGeometry relative="1" as="geometry" />
        </mxCell>
        <mxCell id="ToU6loC46J24oxrMq6Bs-301" value="price" style="ellipse;whiteSpace=wrap;html=1;" parent="1" vertex="1">
          <mxGeometry x="2545" y="1096.5" width="90" height="35" as="geometry" />
        </mxCell>
        <mxCell id="ToU6loC46J24oxrMq6Bs-308" style="edgeStyle=orthogonalEdgeStyle;rounded=0;orthogonalLoop=1;jettySize=auto;html=1;exitX=0;exitY=0.5;exitDx=0;exitDy=0;entryX=1;entryY=0.5;entryDx=0;entryDy=0;" parent="1" source="ToU6loC46J24oxrMq6Bs-303" target="ToU6loC46J24oxrMq6Bs-52" edge="1">
          <mxGeometry relative="1" as="geometry" />
        </mxCell>
        <mxCell id="ToU6loC46J24oxrMq6Bs-303" value="&lt;b&gt;&lt;u&gt;Order_Item_ID&lt;/u&gt;&lt;/b&gt;" style="ellipse;whiteSpace=wrap;html=1;" parent="1" vertex="1">
          <mxGeometry x="2545" y="1016.5" width="90" height="35" as="geometry" />
        </mxCell>
        <mxCell id="ToU6loC46J24oxrMq6Bs-312" value="&lt;b&gt;1:1&lt;/b&gt;" style="text;html=1;align=center;verticalAlign=middle;resizable=0;points=[];autosize=1;strokeColor=none;fillColor=none;" parent="1" vertex="1">
          <mxGeometry x="680" y="376" width="40" height="30" as="geometry" />
        </mxCell>
        <mxCell id="ToU6loC46J24oxrMq6Bs-315" value="&lt;b&gt;1:M&lt;/b&gt;" style="text;html=1;align=center;verticalAlign=middle;resizable=0;points=[];autosize=1;strokeColor=none;fillColor=none;" parent="1" vertex="1">
          <mxGeometry x="1490" y="230" width="40" height="30" as="geometry" />
        </mxCell>
        <mxCell id="ToU6loC46J24oxrMq6Bs-317" value="&lt;b&gt;1:M&lt;/b&gt;" style="text;html=1;align=center;verticalAlign=middle;resizable=0;points=[];autosize=1;strokeColor=none;fillColor=none;" parent="1" vertex="1">
          <mxGeometry x="280" y="489" width="40" height="30" as="geometry" />
        </mxCell>
        <mxCell id="ToU6loC46J24oxrMq6Bs-318" value="&lt;b&gt;1:M&lt;/b&gt;" style="text;html=1;align=center;verticalAlign=middle;resizable=0;points=[];autosize=1;strokeColor=none;fillColor=none;" parent="1" vertex="1">
          <mxGeometry x="600" y="699.93" width="40" height="30" as="geometry" />
        </mxCell>
        <mxCell id="ToU6loC46J24oxrMq6Bs-320" value="&lt;b&gt;M:1&lt;/b&gt;" style="text;html=1;align=center;verticalAlign=middle;resizable=0;points=[];autosize=1;strokeColor=none;fillColor=none;" parent="1" vertex="1">
          <mxGeometry x="315" y="790" width="40" height="30" as="geometry" />
        </mxCell>
        <mxCell id="ToU6loC46J24oxrMq6Bs-322" value="&lt;b&gt;M:1&lt;/b&gt;" style="text;html=1;align=center;verticalAlign=middle;resizable=0;points=[];autosize=1;strokeColor=none;fillColor=none;" parent="1" vertex="1">
          <mxGeometry x="1320" y="1341.06" width="40" height="30" as="geometry" />
        </mxCell>
        <mxCell id="ToU6loC46J24oxrMq6Bs-323" value="&lt;b&gt;1:1&lt;/b&gt;" style="text;html=1;align=center;verticalAlign=middle;resizable=0;points=[];autosize=1;strokeColor=none;fillColor=none;" parent="1" vertex="1">
          <mxGeometry x="2200" y="72.93999999999994" width="40" height="30" as="geometry" />
        </mxCell>
        <mxCell id="ToU6loC46J24oxrMq6Bs-324" value="&lt;b&gt;1:1&lt;/b&gt;" style="text;html=1;align=center;verticalAlign=middle;resizable=0;points=[];autosize=1;strokeColor=none;fillColor=none;" parent="1" vertex="1">
          <mxGeometry x="1785" y="87" width="40" height="30" as="geometry" />
        </mxCell>
        <mxCell id="ToU6loC46J24oxrMq6Bs-326" value="&lt;b&gt;M:1&lt;/b&gt;" style="text;html=1;align=center;verticalAlign=middle;resizable=0;points=[];autosize=1;strokeColor=none;fillColor=none;" parent="1" vertex="1">
          <mxGeometry x="2200" y="941.5" width="40" height="30" as="geometry" />
        </mxCell>
        <mxCell id="EyuBBjKlVLC_FoclDnfz-21" style="edgeStyle=orthogonalEdgeStyle;rounded=0;orthogonalLoop=1;jettySize=auto;html=1;exitX=1;exitY=0.5;exitDx=0;exitDy=0;entryX=0.5;entryY=1;entryDx=0;entryDy=0;strokeColor=#00FF00;" parent="1" source="ToU6loC46J24oxrMq6Bs-330" target="ToU6loC46J24oxrMq6Bs-52" edge="1">
          <mxGeometry relative="1" as="geometry" />
        </mxCell>
        <mxCell id="ToU6loC46J24oxrMq6Bs-330" value="is in" style="rhombus;whiteSpace=wrap;html=1;" parent="1" vertex="1">
          <mxGeometry x="2180" y="1114" width="80" height="80" as="geometry" />
        </mxCell>
        <mxCell id="ToU6loC46J24oxrMq6Bs-334" value="&lt;b&gt;M:1&lt;/b&gt;" style="text;html=1;align=center;verticalAlign=middle;resizable=0;points=[];autosize=1;strokeColor=none;fillColor=none;" parent="1" vertex="1">
          <mxGeometry x="2200" y="1194" width="40" height="30" as="geometry" />
        </mxCell>
        <mxCell id="ToU6loC46J24oxrMq6Bs-337" value="&lt;b&gt;1:M&lt;/b&gt;" style="text;html=1;align=center;verticalAlign=middle;resizable=0;points=[];autosize=1;strokeColor=none;fillColor=none;" parent="1" vertex="1">
          <mxGeometry x="1750" y="1421.51" width="40" height="30" as="geometry" />
        </mxCell>
        <mxCell id="UtE5IbcF4sJG9WHfilwN-15" style="edgeStyle=orthogonalEdgeStyle;rounded=0;orthogonalLoop=1;jettySize=auto;html=1;exitX=0.5;exitY=1;exitDx=0;exitDy=0;entryX=0.5;entryY=1;entryDx=0;entryDy=0;strokeColor=#0000FF;" parent="1" source="UtE5IbcF4sJG9WHfilwN-16" target="UtE5IbcF4sJG9WHfilwN-22" edge="1">
          <mxGeometry relative="1" as="geometry" />
        </mxCell>
        <mxCell id="UtE5IbcF4sJG9WHfilwN-16" value="comment" style="whiteSpace=wrap;html=1;aspect=fixed;" parent="1" vertex="1">
          <mxGeometry x="1510" y="623.81" width="80" height="80" as="geometry" />
        </mxCell>
        <mxCell id="UtE5IbcF4sJG9WHfilwN-21" style="edgeStyle=orthogonalEdgeStyle;rounded=0;orthogonalLoop=1;jettySize=auto;html=1;exitX=0;exitY=0.5;exitDx=0;exitDy=0;entryX=1;entryY=0.5;entryDx=0;entryDy=0;strokeColor=#0000FF;" parent="1" source="UtE5IbcF4sJG9WHfilwN-22" target="UtE5IbcF4sJG9WHfilwN-16" edge="1">
          <mxGeometry relative="1" as="geometry" />
        </mxCell>
        <mxCell id="UtE5IbcF4sJG9WHfilwN-22" value="reply" style="rhombus;whiteSpace=wrap;html=1;" parent="1" vertex="1">
          <mxGeometry x="1670" y="623.81" width="80" height="80" as="geometry" />
        </mxCell>
        <mxCell id="UtE5IbcF4sJG9WHfilwN-27" style="edgeStyle=orthogonalEdgeStyle;rounded=0;orthogonalLoop=1;jettySize=auto;html=1;exitX=1;exitY=0.5;exitDx=0;exitDy=0;entryX=0;entryY=0.5;entryDx=0;entryDy=0;strokeColor=#00FF00;" parent="1" source="UtE5IbcF4sJG9WHfilwN-23" target="UtE5IbcF4sJG9WHfilwN-16" edge="1">
          <mxGeometry relative="1" as="geometry">
            <mxPoint x="1340" y="663.81" as="sourcePoint" />
          </mxGeometry>
        </mxCell>
        <mxCell id="UtE5IbcF4sJG9WHfilwN-23" value="submit" style="rhombus;whiteSpace=wrap;html=1;" parent="1" vertex="1">
          <mxGeometry x="1290" y="623.81" width="80" height="80" as="geometry" />
        </mxCell>
        <mxCell id="UtE5IbcF4sJG9WHfilwN-24" value="&lt;b&gt;1:M&lt;/b&gt;" style="text;html=1;align=center;verticalAlign=middle;resizable=0;points=[];autosize=1;strokeColor=none;fillColor=none;" parent="1" vertex="1">
          <mxGeometry x="1650" y="673.81" width="40" height="30" as="geometry" />
        </mxCell>
        <mxCell id="UtE5IbcF4sJG9WHfilwN-32" style="edgeStyle=orthogonalEdgeStyle;rounded=0;orthogonalLoop=1;jettySize=auto;html=1;exitX=0.5;exitY=1;exitDx=0;exitDy=0;entryX=0.5;entryY=0;entryDx=0;entryDy=0;" parent="1" source="UtE5IbcF4sJG9WHfilwN-28" target="UtE5IbcF4sJG9WHfilwN-16" edge="1">
          <mxGeometry relative="1" as="geometry" />
        </mxCell>
        <mxCell id="UtE5IbcF4sJG9WHfilwN-28" value="&lt;b&gt;&lt;u&gt;Comment_ID&lt;/u&gt;&lt;/b&gt;" style="ellipse;whiteSpace=wrap;html=1;" parent="1" vertex="1">
          <mxGeometry x="1365" y="541.5" width="90" height="35" as="geometry" />
        </mxCell>
        <mxCell id="UtE5IbcF4sJG9WHfilwN-35" style="edgeStyle=orthogonalEdgeStyle;rounded=0;orthogonalLoop=1;jettySize=auto;html=1;exitX=0.5;exitY=1;exitDx=0;exitDy=0;entryX=0.5;entryY=0;entryDx=0;entryDy=0;" parent="1" source="UtE5IbcF4sJG9WHfilwN-30" target="UtE5IbcF4sJG9WHfilwN-16" edge="1">
          <mxGeometry relative="1" as="geometry" />
        </mxCell>
        <mxCell id="UtE5IbcF4sJG9WHfilwN-30" value="star" style="ellipse;whiteSpace=wrap;html=1;" parent="1" vertex="1">
          <mxGeometry x="1465" y="541.5" width="90" height="35" as="geometry" />
        </mxCell>
        <mxCell id="UtE5IbcF4sJG9WHfilwN-36" style="edgeStyle=orthogonalEdgeStyle;rounded=0;orthogonalLoop=1;jettySize=auto;html=1;exitX=0.5;exitY=1;exitDx=0;exitDy=0;entryX=0.5;entryY=0;entryDx=0;entryDy=0;" parent="1" source="UtE5IbcF4sJG9WHfilwN-31" target="UtE5IbcF4sJG9WHfilwN-16" edge="1">
          <mxGeometry relative="1" as="geometry" />
        </mxCell>
        <mxCell id="UtE5IbcF4sJG9WHfilwN-31" value="text" style="ellipse;whiteSpace=wrap;html=1;" parent="1" vertex="1">
          <mxGeometry x="1565" y="541.5" width="90" height="35" as="geometry" />
        </mxCell>
        <mxCell id="UtE5IbcF4sJG9WHfilwN-44" style="edgeStyle=orthogonalEdgeStyle;rounded=0;orthogonalLoop=1;jettySize=auto;html=1;exitX=0.5;exitY=1;exitDx=0;exitDy=0;entryX=0.5;entryY=0;entryDx=0;entryDy=0;" parent="1" source="UtE5IbcF4sJG9WHfilwN-41" target="UtE5IbcF4sJG9WHfilwN-16" edge="1">
          <mxGeometry relative="1" as="geometry" />
        </mxCell>
        <mxCell id="UtE5IbcF4sJG9WHfilwN-41" value="likes count" style="ellipse;whiteSpace=wrap;html=1;" parent="1" vertex="1">
          <mxGeometry x="1665" y="541.5" width="90" height="35" as="geometry" />
        </mxCell>
        <mxCell id="UtE5IbcF4sJG9WHfilwN-43" value="&lt;b&gt;M:1&lt;/b&gt;" style="text;html=1;align=center;verticalAlign=middle;resizable=0;points=[];autosize=1;strokeColor=none;fillColor=none;" parent="1" vertex="1">
          <mxGeometry x="1365" y="634.06" width="40" height="30" as="geometry" />
        </mxCell>
        <mxCell id="GPYepnfZ225K1OBBeHl1-3" value="address" style="whiteSpace=wrap;html=1;aspect=fixed;" parent="1" vertex="1">
          <mxGeometry x="1285" y="-45" width="80" height="80" as="geometry" />
        </mxCell>
        <mxCell id="DTtZkwZOQEOStWwTzAfP-29" style="edgeStyle=orthogonalEdgeStyle;rounded=0;orthogonalLoop=1;jettySize=auto;html=1;exitX=0.5;exitY=0;exitDx=0;exitDy=0;entryX=0;entryY=0.5;entryDx=0;entryDy=0;strokeColor=#0000FF;" parent="1" source="GPYepnfZ225K1OBBeHl1-5" target="GPYepnfZ225K1OBBeHl1-3" edge="1">
          <mxGeometry relative="1" as="geometry" />
        </mxCell>
        <mxCell id="GPYepnfZ225K1OBBeHl1-5" value="has" style="rhombus;whiteSpace=wrap;html=1;" parent="1" vertex="1">
          <mxGeometry x="1105" y="70" width="90" height="80" as="geometry" />
        </mxCell>
        <mxCell id="GPYepnfZ225K1OBBeHl1-12" style="edgeStyle=orthogonalEdgeStyle;rounded=0;orthogonalLoop=1;jettySize=auto;html=1;exitX=0;exitY=0.5;exitDx=0;exitDy=0;entryX=1;entryY=0.5;entryDx=0;entryDy=0;strokeColor=#FF0000;" parent="1" source="GPYepnfZ225K1OBBeHl1-8" target="GPYepnfZ225K1OBBeHl1-3" edge="1">
          <mxGeometry relative="1" as="geometry" />
        </mxCell>
        <mxCell id="DTtZkwZOQEOStWwTzAfP-30" style="edgeStyle=orthogonalEdgeStyle;rounded=0;orthogonalLoop=1;jettySize=auto;html=1;exitX=1;exitY=0.5;exitDx=0;exitDy=0;entryX=0;entryY=0.5;entryDx=0;entryDy=0;fillColor=#FF0000;strokeColor=#FF0000;" parent="1" source="GPYepnfZ225K1OBBeHl1-8" target="ToU6loC46J24oxrMq6Bs-40" edge="1">
          <mxGeometry relative="1" as="geometry" />
        </mxCell>
        <mxCell id="GPYepnfZ225K1OBBeHl1-8" value="has" style="rhombus;whiteSpace=wrap;html=1;" parent="1" vertex="1">
          <mxGeometry x="1520" y="-45" width="80" height="80" as="geometry" />
        </mxCell>
        <mxCell id="GPYepnfZ225K1OBBeHl1-13" value="&lt;b&gt;1:1&lt;/b&gt;" style="text;html=1;align=center;verticalAlign=middle;resizable=0;points=[];autosize=1;strokeColor=none;fillColor=none;" parent="1" vertex="1">
          <mxGeometry x="1540" y="40" width="40" height="30" as="geometry" />
        </mxCell>
        <mxCell id="GPYepnfZ225K1OBBeHl1-14" value="&lt;b&gt;1:M&lt;/b&gt;" style="text;html=1;align=center;verticalAlign=middle;resizable=0;points=[];autosize=1;strokeColor=none;fillColor=none;" parent="1" vertex="1">
          <mxGeometry x="1155" y="40" width="40" height="30" as="geometry" />
        </mxCell>
        <mxCell id="GPYepnfZ225K1OBBeHl1-16" style="edgeStyle=orthogonalEdgeStyle;rounded=0;orthogonalLoop=1;jettySize=auto;html=1;exitX=0.5;exitY=1;exitDx=0;exitDy=0;entryX=0.5;entryY=0;entryDx=0;entryDy=0;" parent="1" source="GPYepnfZ225K1OBBeHl1-15" target="UtE5IbcF4sJG9WHfilwN-16" edge="1">
          <mxGeometry relative="1" as="geometry" />
        </mxCell>
        <mxCell id="GPYepnfZ225K1OBBeHl1-15" value="deslikes count" style="ellipse;whiteSpace=wrap;html=1;" parent="1" vertex="1">
          <mxGeometry x="1765" y="541.5" width="90" height="35" as="geometry" />
        </mxCell>
        <mxCell id="GPYepnfZ225K1OBBeHl1-18" value="Discount" style="whiteSpace=wrap;html=1;aspect=fixed;" parent="1" vertex="1">
          <mxGeometry x="1110" y="511.31" width="80" height="80" as="geometry" />
        </mxCell>
        <mxCell id="GPYepnfZ225K1OBBeHl1-24" value="&lt;b&gt;1:1&lt;/b&gt;" style="text;html=1;align=center;verticalAlign=middle;resizable=0;points=[];autosize=1;strokeColor=none;fillColor=none;" parent="1" vertex="1">
          <mxGeometry x="900" y="720" width="40" height="30" as="geometry" />
        </mxCell>
        <mxCell id="GPYepnfZ225K1OBBeHl1-50" style="edgeStyle=orthogonalEdgeStyle;rounded=0;orthogonalLoop=1;jettySize=auto;html=1;exitX=1;exitY=0.5;exitDx=0;exitDy=0;entryX=0;entryY=0.5;entryDx=0;entryDy=0;" parent="1" source="GPYepnfZ225K1OBBeHl1-26" target="GPYepnfZ225K1OBBeHl1-18" edge="1">
          <mxGeometry relative="1" as="geometry" />
        </mxCell>
        <mxCell id="GPYepnfZ225K1OBBeHl1-26" value="&lt;b&gt;&lt;u&gt;Discount_ID&lt;/u&gt;&lt;/b&gt;" style="ellipse;whiteSpace=wrap;html=1;" parent="1" vertex="1">
          <mxGeometry x="977" y="415.31" width="90" height="35" as="geometry" />
        </mxCell>
        <mxCell id="GPYepnfZ225K1OBBeHl1-52" style="edgeStyle=orthogonalEdgeStyle;rounded=0;orthogonalLoop=1;jettySize=auto;html=1;exitX=1;exitY=0.5;exitDx=0;exitDy=0;entryX=0;entryY=0.5;entryDx=0;entryDy=0;" parent="1" source="GPYepnfZ225K1OBBeHl1-27" target="GPYepnfZ225K1OBBeHl1-18" edge="1">
          <mxGeometry relative="1" as="geometry" />
        </mxCell>
        <mxCell id="GPYepnfZ225K1OBBeHl1-27" value="&lt;div&gt;value&lt;/div&gt;" style="ellipse;whiteSpace=wrap;html=1;" parent="1" vertex="1">
          <mxGeometry x="977" y="511.31" width="90" height="35" as="geometry" />
        </mxCell>
        <mxCell id="GPYepnfZ225K1OBBeHl1-51" style="edgeStyle=orthogonalEdgeStyle;rounded=0;orthogonalLoop=1;jettySize=auto;html=1;exitX=1;exitY=0.5;exitDx=0;exitDy=0;entryX=0;entryY=0.5;entryDx=0;entryDy=0;" parent="1" source="GPYepnfZ225K1OBBeHl1-28" target="GPYepnfZ225K1OBBeHl1-18" edge="1">
          <mxGeometry relative="1" as="geometry" />
        </mxCell>
        <mxCell id="GPYepnfZ225K1OBBeHl1-28" value="&lt;div&gt;discount_type&lt;/div&gt;" style="ellipse;whiteSpace=wrap;html=1;" parent="1" vertex="1">
          <mxGeometry x="977" y="461.31" width="90" height="35" as="geometry" />
        </mxCell>
        <mxCell id="GPYepnfZ225K1OBBeHl1-48" style="edgeStyle=orthogonalEdgeStyle;rounded=0;orthogonalLoop=1;jettySize=auto;html=1;exitX=1;exitY=0.5;exitDx=0;exitDy=0;entryX=0;entryY=0.5;entryDx=0;entryDy=0;" parent="1" source="GPYepnfZ225K1OBBeHl1-29" target="GPYepnfZ225K1OBBeHl1-18" edge="1">
          <mxGeometry relative="1" as="geometry" />
        </mxCell>
        <mxCell id="GPYepnfZ225K1OBBeHl1-29" value="&lt;div&gt;start_date&lt;/div&gt;" style="ellipse;whiteSpace=wrap;html=1;" parent="1" vertex="1">
          <mxGeometry x="977" y="607.6199999999999" width="90" height="35" as="geometry" />
        </mxCell>
        <mxCell id="GPYepnfZ225K1OBBeHl1-49" style="edgeStyle=orthogonalEdgeStyle;rounded=0;orthogonalLoop=1;jettySize=auto;html=1;exitX=1;exitY=0.5;exitDx=0;exitDy=0;entryX=0;entryY=0.5;entryDx=0;entryDy=0;" parent="1" source="GPYepnfZ225K1OBBeHl1-30" target="GPYepnfZ225K1OBBeHl1-18" edge="1">
          <mxGeometry relative="1" as="geometry" />
        </mxCell>
        <mxCell id="GPYepnfZ225K1OBBeHl1-30" value="&lt;div&gt;end_date&lt;/div&gt;" style="ellipse;whiteSpace=wrap;html=1;" parent="1" vertex="1">
          <mxGeometry x="977" y="656.3100000000002" width="90" height="35" as="geometry" />
        </mxCell>
        <mxCell id="GPYepnfZ225K1OBBeHl1-47" style="edgeStyle=orthogonalEdgeStyle;rounded=0;orthogonalLoop=1;jettySize=auto;html=1;exitX=1;exitY=0.5;exitDx=0;exitDy=0;entryX=0;entryY=0.5;entryDx=0;entryDy=0;" parent="1" source="GPYepnfZ225K1OBBeHl1-31" target="GPYepnfZ225K1OBBeHl1-18" edge="1">
          <mxGeometry relative="1" as="geometry" />
        </mxCell>
        <mxCell id="GPYepnfZ225K1OBBeHl1-31" value="description" style="ellipse;whiteSpace=wrap;html=1;" parent="1" vertex="1">
          <mxGeometry x="977" y="560.3699999999999" width="90" height="35" as="geometry" />
        </mxCell>
        <mxCell id="GPYepnfZ225K1OBBeHl1-34" style="edgeStyle=orthogonalEdgeStyle;rounded=0;orthogonalLoop=1;jettySize=auto;html=1;exitX=0.5;exitY=0;exitDx=0;exitDy=0;entryX=0.5;entryY=1;entryDx=0;entryDy=0;strokeColor=#663300;" parent="1" source="GPYepnfZ225K1OBBeHl1-32" target="GPYepnfZ225K1OBBeHl1-18" edge="1">
          <mxGeometry relative="1" as="geometry" />
        </mxCell>
        <mxCell id="GPYepnfZ225K1OBBeHl1-32" value="applies To" style="rhombus;whiteSpace=wrap;html=1;" parent="1" vertex="1">
          <mxGeometry x="1110" y="853.94" width="80" height="80" as="geometry" />
        </mxCell>
        <mxCell id="GPYepnfZ225K1OBBeHl1-59" style="edgeStyle=orthogonalEdgeStyle;rounded=0;orthogonalLoop=1;jettySize=auto;html=1;exitX=1;exitY=0.5;exitDx=0;exitDy=0;entryX=0.5;entryY=1;entryDx=0;entryDy=0;strokeColor=#0000FF;" parent="1" source="GPYepnfZ225K1OBBeHl1-57" target="ToU6loC46J24oxrMq6Bs-33" edge="1">
          <mxGeometry relative="1" as="geometry" />
        </mxCell>
        <mxCell id="GPYepnfZ225K1OBBeHl1-57" value="used In" style="rhombus;whiteSpace=wrap;html=1;" parent="1" vertex="1">
          <mxGeometry x="1470" y="399.11" width="80" height="80" as="geometry" />
        </mxCell>
        <mxCell id="GPYepnfZ225K1OBBeHl1-60" value="&lt;b&gt;1:M&lt;/b&gt;" style="text;html=1;align=center;verticalAlign=middle;resizable=0;points=[];autosize=1;strokeColor=none;fillColor=none;" parent="1" vertex="1">
          <mxGeometry x="1490" y="370.99999999999994" width="40" height="30" as="geometry" />
        </mxCell>
        <mxCell id="GPYepnfZ225K1OBBeHl1-64" style="edgeStyle=orthogonalEdgeStyle;rounded=0;orthogonalLoop=1;jettySize=auto;html=1;exitX=0.5;exitY=1;exitDx=0;exitDy=0;entryX=0.25;entryY=0;entryDx=0;entryDy=0;strokeColor=#663300;" parent="1" source="GPYepnfZ225K1OBBeHl1-62" target="GPYepnfZ225K1OBBeHl1-18" edge="1">
          <mxGeometry relative="1" as="geometry" />
        </mxCell>
        <mxCell id="GPYepnfZ225K1OBBeHl1-62" value="available To" style="rhombus;whiteSpace=wrap;html=1;" parent="1" vertex="1">
          <mxGeometry x="1090" y="352.25" width="80" height="80" as="geometry" />
        </mxCell>
        <mxCell id="GPYepnfZ225K1OBBeHl1-65" value="&lt;b&gt;M:M&lt;/b&gt;" style="text;html=1;align=center;verticalAlign=middle;resizable=0;points=[];autosize=1;strokeColor=none;fillColor=none;" parent="1" vertex="1">
          <mxGeometry x="1055" y="880" width="50" height="30" as="geometry" />
        </mxCell>
        <mxCell id="GPYepnfZ225K1OBBeHl1-66" value="&lt;b&gt;M:M&lt;/b&gt;" style="text;html=1;align=center;verticalAlign=middle;resizable=0;points=[];autosize=1;strokeColor=none;fillColor=none;" parent="1" vertex="1">
          <mxGeometry x="1057" y="360" width="50" height="30" as="geometry" />
        </mxCell>
        <mxCell id="DTtZkwZOQEOStWwTzAfP-3" style="edgeStyle=orthogonalEdgeStyle;rounded=0;orthogonalLoop=1;jettySize=auto;html=1;exitX=0.5;exitY=1;exitDx=0;exitDy=0;entryX=0.5;entryY=0;entryDx=0;entryDy=0;strokeColor=#0000FF;" parent="1" source="ufHKqpi8NyHyEoY8DNFn-1" target="DTtZkwZOQEOStWwTzAfP-2" edge="1">
          <mxGeometry relative="1" as="geometry" />
        </mxCell>
        <mxCell id="DTtZkwZOQEOStWwTzAfP-99" style="edgeStyle=orthogonalEdgeStyle;rounded=0;orthogonalLoop=1;jettySize=auto;html=1;exitX=1;exitY=0;exitDx=0;exitDy=0;strokeColor=#0000FF;" parent="1" source="ufHKqpi8NyHyEoY8DNFn-1" target="DTtZkwZOQEOStWwTzAfP-56" edge="1">
          <mxGeometry relative="1" as="geometry" />
        </mxCell>
        <mxCell id="ufHKqpi8NyHyEoY8DNFn-1" value="&lt;font style=&quot;font-size: 17px;&quot;&gt;vendor&lt;/font&gt;" style="whiteSpace=wrap;html=1;aspect=fixed;" parent="1" vertex="1">
          <mxGeometry x="-430" y="653.56" width="80" height="80" as="geometry" />
        </mxCell>
        <mxCell id="DTtZkwZOQEOStWwTzAfP-58" style="edgeStyle=orthogonalEdgeStyle;rounded=0;orthogonalLoop=1;jettySize=auto;html=1;exitX=0.5;exitY=1;exitDx=0;exitDy=0;entryX=0.5;entryY=0;entryDx=0;entryDy=0;strokeColor=#0000FF;" parent="1" source="ufHKqpi8NyHyEoY8DNFn-2" target="DTtZkwZOQEOStWwTzAfP-56" edge="1">
          <mxGeometry relative="1" as="geometry" />
        </mxCell>
        <mxCell id="ufHKqpi8NyHyEoY8DNFn-2" value="&lt;font&gt;vendor_review&lt;/font&gt;" style="whiteSpace=wrap;html=1;aspect=fixed;" parent="1" vertex="1">
          <mxGeometry x="-390" y="260" width="80" height="80" as="geometry" />
        </mxCell>
        <mxCell id="ufHKqpi8NyHyEoY8DNFn-8" value="Return_Request" style="whiteSpace=wrap;html=1;aspect=fixed;fontSize=11;" parent="1" vertex="1">
          <mxGeometry x="2735" y="439" width="80" height="80" as="geometry" />
        </mxCell>
        <mxCell id="ufHKqpi8NyHyEoY8DNFn-9" value="Return_Shipping" style="whiteSpace=wrap;html=1;aspect=fixed;fontSize=10;" parent="1" vertex="1">
          <mxGeometry x="3220" y="438.80999999999995" width="80" height="80" as="geometry" />
        </mxCell>
        <mxCell id="ufHKqpi8NyHyEoY8DNFn-10" value="Return_Item" style="whiteSpace=wrap;html=1;aspect=fixed;fontSize=13;" parent="1" vertex="1">
          <mxGeometry x="2735" y="779.9999999999999" width="80" height="80" as="geometry" />
        </mxCell>
        <mxCell id="ufHKqpi8NyHyEoY8DNFn-11" value="Product_Inventory" style="whiteSpace=wrap;html=1;aspect=fixed;fontSize=10;" parent="1" vertex="1">
          <mxGeometry x="810" y="1676.06" width="80" height="80" as="geometry" />
        </mxCell>
        <mxCell id="ufHKqpi8NyHyEoY8DNFn-12" value="Inventory_Transaction" style="whiteSpace=wrap;html=1;aspect=fixed;fontSize=8;" parent="1" vertex="1">
          <mxGeometry x="1105" y="1676.06" width="80" height="80" as="geometry" />
        </mxCell>
        <mxCell id="DTtZkwZOQEOStWwTzAfP-126" style="edgeStyle=orthogonalEdgeStyle;rounded=0;orthogonalLoop=1;jettySize=auto;html=1;exitX=0.25;exitY=0;exitDx=0;exitDy=0;entryX=0.5;entryY=1;entryDx=0;entryDy=0;strokeColor=#0000FF;" parent="1" target="DTtZkwZOQEOStWwTzAfP-123" edge="1">
          <mxGeometry relative="1" as="geometry">
            <mxPoint x="980" y="2186.0600000000004" as="sourcePoint" />
          </mxGeometry>
        </mxCell>
        <mxCell id="DTtZkwZOQEOStWwTzAfP-148" style="edgeStyle=orthogonalEdgeStyle;rounded=0;orthogonalLoop=1;jettySize=auto;html=1;exitX=1;exitY=0.5;exitDx=0;exitDy=0;entryX=0;entryY=0.5;entryDx=0;entryDy=0;" parent="1" source="ufHKqpi8NyHyEoY8DNFn-35" target="ufHKqpi8NyHyEoY8DNFn-1" edge="1">
          <mxGeometry relative="1" as="geometry" />
        </mxCell>
        <mxCell id="ufHKqpi8NyHyEoY8DNFn-35" value="Shop_Name" style="ellipse;whiteSpace=wrap;html=1;" parent="1" vertex="1">
          <mxGeometry x="-561" y="633.31" width="90" height="35" as="geometry" />
        </mxCell>
        <mxCell id="DTtZkwZOQEOStWwTzAfP-149" style="edgeStyle=orthogonalEdgeStyle;rounded=0;orthogonalLoop=1;jettySize=auto;html=1;exitX=1;exitY=0.5;exitDx=0;exitDy=0;entryX=0;entryY=0.5;entryDx=0;entryDy=0;" parent="1" source="ufHKqpi8NyHyEoY8DNFn-36" target="ufHKqpi8NyHyEoY8DNFn-1" edge="1">
          <mxGeometry relative="1" as="geometry" />
        </mxCell>
        <mxCell id="ufHKqpi8NyHyEoY8DNFn-36" value="Description" style="ellipse;whiteSpace=wrap;html=1;" parent="1" vertex="1">
          <mxGeometry x="-561" y="675.81" width="90" height="35.5" as="geometry" />
        </mxCell>
        <mxCell id="DTtZkwZOQEOStWwTzAfP-150" style="edgeStyle=orthogonalEdgeStyle;rounded=0;orthogonalLoop=1;jettySize=auto;html=1;exitX=1;exitY=0.5;exitDx=0;exitDy=0;entryX=0;entryY=0.5;entryDx=0;entryDy=0;" parent="1" source="ufHKqpi8NyHyEoY8DNFn-37" target="ufHKqpi8NyHyEoY8DNFn-1" edge="1">
          <mxGeometry relative="1" as="geometry" />
        </mxCell>
        <mxCell id="ufHKqpi8NyHyEoY8DNFn-37" value="Rating" style="ellipse;whiteSpace=wrap;html=1;" parent="1" vertex="1">
          <mxGeometry x="-561" y="720.81" width="90" height="35" as="geometry" />
        </mxCell>
        <mxCell id="DTtZkwZOQEOStWwTzAfP-151" style="edgeStyle=orthogonalEdgeStyle;rounded=0;orthogonalLoop=1;jettySize=auto;html=1;exitX=1;exitY=0.5;exitDx=0;exitDy=0;entryX=0;entryY=0.5;entryDx=0;entryDy=0;" parent="1" source="ufHKqpi8NyHyEoY8DNFn-38" target="ufHKqpi8NyHyEoY8DNFn-1" edge="1">
          <mxGeometry relative="1" as="geometry" />
        </mxCell>
        <mxCell id="ufHKqpi8NyHyEoY8DNFn-38" value="status" style="ellipse;whiteSpace=wrap;html=1;" parent="1" vertex="1">
          <mxGeometry x="-561" y="765.81" width="90" height="35" as="geometry" />
        </mxCell>
        <mxCell id="EyuBBjKlVLC_FoclDnfz-26" style="edgeStyle=orthogonalEdgeStyle;rounded=0;orthogonalLoop=1;jettySize=auto;html=1;exitX=0.5;exitY=0;exitDx=0;exitDy=0;entryX=0.5;entryY=1;entryDx=0;entryDy=0;" parent="1" source="ufHKqpi8NyHyEoY8DNFn-43" target="ToU6loC46J24oxrMq6Bs-27" edge="1">
          <mxGeometry relative="1" as="geometry" />
        </mxCell>
        <mxCell id="ufHKqpi8NyHyEoY8DNFn-43" value="status" style="ellipse;whiteSpace=wrap;html=1;" parent="1" vertex="1">
          <mxGeometry x="390" y="1561.06" width="90" height="35" as="geometry" />
        </mxCell>
        <mxCell id="DTtZkwZOQEOStWwTzAfP-91" style="edgeStyle=orthogonalEdgeStyle;rounded=0;orthogonalLoop=1;jettySize=auto;html=1;exitX=0.5;exitY=1;exitDx=0;exitDy=0;entryX=0.5;entryY=0;entryDx=0;entryDy=0;" parent="1" source="ufHKqpi8NyHyEoY8DNFn-46" target="ufHKqpi8NyHyEoY8DNFn-2" edge="1">
          <mxGeometry relative="1" as="geometry" />
        </mxCell>
        <mxCell id="ufHKqpi8NyHyEoY8DNFn-46" value="&lt;b&gt;&lt;u&gt;Review_ID&lt;/u&gt;&lt;/b&gt;" style="ellipse;whiteSpace=wrap;html=1;" parent="1" vertex="1">
          <mxGeometry x="-395" y="185" width="90" height="35" as="geometry" />
        </mxCell>
        <mxCell id="DTtZkwZOQEOStWwTzAfP-92" style="edgeStyle=orthogonalEdgeStyle;rounded=0;orthogonalLoop=1;jettySize=auto;html=1;exitX=0.5;exitY=1;exitDx=0;exitDy=0;entryX=0.5;entryY=0;entryDx=0;entryDy=0;" parent="1" source="ufHKqpi8NyHyEoY8DNFn-47" target="ufHKqpi8NyHyEoY8DNFn-2" edge="1">
          <mxGeometry relative="1" as="geometry" />
        </mxCell>
        <mxCell id="ufHKqpi8NyHyEoY8DNFn-47" value="Rating" style="ellipse;whiteSpace=wrap;html=1;" parent="1" vertex="1">
          <mxGeometry x="-295" y="185" width="90" height="35" as="geometry" />
        </mxCell>
        <mxCell id="DTtZkwZOQEOStWwTzAfP-93" style="edgeStyle=orthogonalEdgeStyle;rounded=0;orthogonalLoop=1;jettySize=auto;html=1;exitX=0.5;exitY=1;exitDx=0;exitDy=0;entryX=0.5;entryY=0;entryDx=0;entryDy=0;" parent="1" source="ufHKqpi8NyHyEoY8DNFn-48" target="ufHKqpi8NyHyEoY8DNFn-2" edge="1">
          <mxGeometry relative="1" as="geometry" />
        </mxCell>
        <mxCell id="ufHKqpi8NyHyEoY8DNFn-48" value="&lt;div&gt;Comment&lt;/div&gt;" style="ellipse;whiteSpace=wrap;html=1;" parent="1" vertex="1">
          <mxGeometry x="-195" y="185" width="90" height="35" as="geometry" />
        </mxCell>
        <mxCell id="DTtZkwZOQEOStWwTzAfP-18" style="edgeStyle=orthogonalEdgeStyle;rounded=0;orthogonalLoop=1;jettySize=auto;html=1;exitX=0.5;exitY=0;exitDx=0;exitDy=0;entryX=0.5;entryY=1;entryDx=0;entryDy=0;" parent="1" source="ufHKqpi8NyHyEoY8DNFn-51" edge="1">
          <mxGeometry relative="1" as="geometry">
            <mxPoint x="-535" y="1739.9999999999995" as="targetPoint" />
          </mxGeometry>
        </mxCell>
        <mxCell id="ufHKqpi8NyHyEoY8DNFn-51" value="&lt;div&gt;status&lt;/div&gt;" style="ellipse;whiteSpace=wrap;html=1;" parent="1" vertex="1">
          <mxGeometry x="-445" y="1783.94" width="90" height="35" as="geometry" />
        </mxCell>
        <mxCell id="DTtZkwZOQEOStWwTzAfP-15" style="edgeStyle=orthogonalEdgeStyle;rounded=0;orthogonalLoop=1;jettySize=auto;html=1;exitX=0.5;exitY=0;exitDx=0;exitDy=0;entryX=0.5;entryY=1;entryDx=0;entryDy=0;" parent="1" source="ufHKqpi8NyHyEoY8DNFn-52" edge="1">
          <mxGeometry relative="1" as="geometry">
            <mxPoint x="-535" y="1739.9999999999995" as="targetPoint" />
          </mxGeometry>
        </mxCell>
        <mxCell id="ufHKqpi8NyHyEoY8DNFn-52" value="&lt;b&gt;&lt;u&gt;Bendle_ID&lt;/u&gt;&lt;/b&gt;" style="ellipse;whiteSpace=wrap;html=1;" parent="1" vertex="1">
          <mxGeometry x="-750" y="1783.94" width="90" height="35" as="geometry" />
        </mxCell>
        <mxCell id="DTtZkwZOQEOStWwTzAfP-16" style="edgeStyle=orthogonalEdgeStyle;rounded=0;orthogonalLoop=1;jettySize=auto;html=1;exitX=0.5;exitY=0;exitDx=0;exitDy=0;entryX=0.5;entryY=1;entryDx=0;entryDy=0;" parent="1" source="ufHKqpi8NyHyEoY8DNFn-53" edge="1">
          <mxGeometry relative="1" as="geometry">
            <mxPoint x="-535" y="1739.9999999999995" as="targetPoint" />
          </mxGeometry>
        </mxCell>
        <mxCell id="ufHKqpi8NyHyEoY8DNFn-53" value="Name" style="ellipse;whiteSpace=wrap;html=1;" parent="1" vertex="1">
          <mxGeometry x="-650" y="1783.94" width="90" height="35" as="geometry" />
        </mxCell>
        <mxCell id="DTtZkwZOQEOStWwTzAfP-17" style="edgeStyle=orthogonalEdgeStyle;rounded=0;orthogonalLoop=1;jettySize=auto;html=1;exitX=0.5;exitY=0;exitDx=0;exitDy=0;entryX=0.5;entryY=1;entryDx=0;entryDy=0;" parent="1" source="ufHKqpi8NyHyEoY8DNFn-54" edge="1">
          <mxGeometry relative="1" as="geometry">
            <mxPoint x="-535" y="1739.9999999999995" as="targetPoint" />
          </mxGeometry>
        </mxCell>
        <mxCell id="ufHKqpi8NyHyEoY8DNFn-54" value="&lt;div&gt;Description&lt;/div&gt;" style="ellipse;whiteSpace=wrap;html=1;" parent="1" vertex="1">
          <mxGeometry x="-550" y="1783.94" width="90" height="35" as="geometry" />
        </mxCell>
        <mxCell id="DTtZkwZOQEOStWwTzAfP-12" style="edgeStyle=orthogonalEdgeStyle;rounded=0;orthogonalLoop=1;jettySize=auto;html=1;exitX=1;exitY=0.5;exitDx=0;exitDy=0;entryX=0;entryY=0.5;entryDx=0;entryDy=0;" parent="1" source="ufHKqpi8NyHyEoY8DNFn-55" target="DTtZkwZOQEOStWwTzAfP-9" edge="1">
          <mxGeometry relative="1" as="geometry" />
        </mxCell>
        <mxCell id="ufHKqpi8NyHyEoY8DNFn-55" value="&lt;font style=&quot;font-size: 10px;&quot;&gt;Price_adjustment&lt;/font&gt;" style="ellipse;whiteSpace=wrap;html=1;" parent="1" vertex="1">
          <mxGeometry x="-710" y="1436.56" width="90" height="35" as="geometry" />
        </mxCell>
        <mxCell id="DTtZkwZOQEOStWwTzAfP-13" style="edgeStyle=orthogonalEdgeStyle;rounded=0;orthogonalLoop=1;jettySize=auto;html=1;exitX=1;exitY=0.5;exitDx=0;exitDy=0;entryX=0;entryY=0.5;entryDx=0;entryDy=0;" parent="1" source="ufHKqpi8NyHyEoY8DNFn-56" target="DTtZkwZOQEOStWwTzAfP-9" edge="1">
          <mxGeometry relative="1" as="geometry" />
        </mxCell>
        <mxCell id="ufHKqpi8NyHyEoY8DNFn-56" value="Quantity" style="ellipse;whiteSpace=wrap;html=1;" parent="1" vertex="1">
          <mxGeometry x="-710" y="1396.56" width="90" height="35" as="geometry" />
        </mxCell>
        <mxCell id="ufHKqpi8NyHyEoY8DNFn-74" value="Description" style="ellipse;whiteSpace=wrap;html=1;" parent="1" vertex="1">
          <mxGeometry x="2680" y="379" width="90" height="35" as="geometry" />
        </mxCell>
        <mxCell id="ufHKqpi8NyHyEoY8DNFn-75" value="Status" style="ellipse;whiteSpace=wrap;html=1;" parent="1" vertex="1">
          <mxGeometry x="2780" y="379" width="90" height="35" as="geometry" />
        </mxCell>
        <mxCell id="ufHKqpi8NyHyEoY8DNFn-76" value="Date" style="ellipse;whiteSpace=wrap;html=1;" parent="1" vertex="1">
          <mxGeometry x="2880" y="376" width="90" height="35" as="geometry" />
        </mxCell>
        <mxCell id="ufHKqpi8NyHyEoY8DNFn-77" value="Reason" style="ellipse;whiteSpace=wrap;html=1;" parent="1" vertex="1">
          <mxGeometry x="2580" y="379" width="90" height="35" as="geometry" />
        </mxCell>
        <mxCell id="ufHKqpi8NyHyEoY8DNFn-78" value="&lt;b&gt;&lt;u&gt;Return_ID&lt;/u&gt;&lt;/b&gt;" style="ellipse;whiteSpace=wrap;html=1;" parent="1" vertex="1">
          <mxGeometry x="2480" y="379" width="90" height="35" as="geometry" />
        </mxCell>
        <mxCell id="DTtZkwZOQEOStWwTzAfP-77" style="edgeStyle=orthogonalEdgeStyle;rounded=0;orthogonalLoop=1;jettySize=auto;html=1;exitX=0;exitY=0.5;exitDx=0;exitDy=0;entryX=1;entryY=0.5;entryDx=0;entryDy=0;" parent="1" source="ufHKqpi8NyHyEoY8DNFn-79" target="ufHKqpi8NyHyEoY8DNFn-10" edge="1">
          <mxGeometry relative="1" as="geometry" />
        </mxCell>
        <mxCell id="ufHKqpi8NyHyEoY8DNFn-79" value="condition" style="ellipse;whiteSpace=wrap;html=1;" parent="1" vertex="1">
          <mxGeometry x="2910" y="787.5" width="90" height="35" as="geometry" />
        </mxCell>
        <mxCell id="DTtZkwZOQEOStWwTzAfP-78" style="edgeStyle=orthogonalEdgeStyle;rounded=0;orthogonalLoop=1;jettySize=auto;html=1;exitX=0;exitY=0.5;exitDx=0;exitDy=0;entryX=1;entryY=0.5;entryDx=0;entryDy=0;" parent="1" source="ufHKqpi8NyHyEoY8DNFn-80" target="ufHKqpi8NyHyEoY8DNFn-10" edge="1">
          <mxGeometry relative="1" as="geometry" />
        </mxCell>
        <mxCell id="ufHKqpi8NyHyEoY8DNFn-80" value="Refund_amount" style="ellipse;whiteSpace=wrap;html=1;" parent="1" vertex="1">
          <mxGeometry x="2910" y="830" width="90" height="35" as="geometry" />
        </mxCell>
        <mxCell id="DTtZkwZOQEOStWwTzAfP-79" style="edgeStyle=orthogonalEdgeStyle;rounded=0;orthogonalLoop=1;jettySize=auto;html=1;exitX=0;exitY=0.5;exitDx=0;exitDy=0;entryX=1;entryY=0.5;entryDx=0;entryDy=0;" parent="1" source="ufHKqpi8NyHyEoY8DNFn-81" target="ufHKqpi8NyHyEoY8DNFn-10" edge="1">
          <mxGeometry relative="1" as="geometry" />
        </mxCell>
        <mxCell id="ufHKqpi8NyHyEoY8DNFn-81" value="status" style="ellipse;whiteSpace=wrap;html=1;" parent="1" vertex="1">
          <mxGeometry x="2910" y="875" width="90" height="35" as="geometry" />
        </mxCell>
        <mxCell id="DTtZkwZOQEOStWwTzAfP-76" style="edgeStyle=orthogonalEdgeStyle;rounded=0;orthogonalLoop=1;jettySize=auto;html=1;exitX=0;exitY=0.5;exitDx=0;exitDy=0;entryX=1;entryY=0.5;entryDx=0;entryDy=0;" parent="1" source="ufHKqpi8NyHyEoY8DNFn-82" target="ufHKqpi8NyHyEoY8DNFn-10" edge="1">
          <mxGeometry relative="1" as="geometry" />
        </mxCell>
        <mxCell id="ufHKqpi8NyHyEoY8DNFn-82" value="Quantity" style="ellipse;whiteSpace=wrap;html=1;" parent="1" vertex="1">
          <mxGeometry x="2910" y="740.81" width="90" height="35" as="geometry" />
        </mxCell>
        <mxCell id="DTtZkwZOQEOStWwTzAfP-88" style="edgeStyle=orthogonalEdgeStyle;rounded=0;orthogonalLoop=1;jettySize=auto;html=1;exitX=0;exitY=0.5;exitDx=0;exitDy=0;entryX=1;entryY=0.5;entryDx=0;entryDy=0;" parent="1" source="ufHKqpi8NyHyEoY8DNFn-88" target="ufHKqpi8NyHyEoY8DNFn-9" edge="1">
          <mxGeometry relative="1" as="geometry" />
        </mxCell>
        <mxCell id="ufHKqpi8NyHyEoY8DNFn-88" value="status" style="ellipse;whiteSpace=wrap;html=1;" parent="1" vertex="1">
          <mxGeometry x="3350" y="461.60999999999996" width="90" height="35" as="geometry" />
        </mxCell>
        <mxCell id="DTtZkwZOQEOStWwTzAfP-89" style="edgeStyle=orthogonalEdgeStyle;rounded=0;orthogonalLoop=1;jettySize=auto;html=1;exitX=0;exitY=0.5;exitDx=0;exitDy=0;entryX=1;entryY=0.5;entryDx=0;entryDy=0;" parent="1" source="ufHKqpi8NyHyEoY8DNFn-89" target="ufHKqpi8NyHyEoY8DNFn-9" edge="1">
          <mxGeometry relative="1" as="geometry" />
        </mxCell>
        <mxCell id="ufHKqpi8NyHyEoY8DNFn-89" value="&lt;font style=&quot;font-size: 9px;&quot;&gt;Estimated_delivery&lt;/font&gt;" style="ellipse;whiteSpace=wrap;html=1;" parent="1" vertex="1">
          <mxGeometry x="3350" y="540.9799999999999" width="90" height="35" as="geometry" />
        </mxCell>
        <mxCell id="DTtZkwZOQEOStWwTzAfP-90" style="edgeStyle=orthogonalEdgeStyle;rounded=0;orthogonalLoop=1;jettySize=auto;html=1;exitX=0;exitY=0.5;exitDx=0;exitDy=0;entryX=1;entryY=0.5;entryDx=0;entryDy=0;" parent="1" source="ufHKqpi8NyHyEoY8DNFn-90" target="ufHKqpi8NyHyEoY8DNFn-9" edge="1">
          <mxGeometry relative="1" as="geometry" />
        </mxCell>
        <mxCell id="ufHKqpi8NyHyEoY8DNFn-90" value="Actual_Delivery" style="ellipse;whiteSpace=wrap;html=1;" parent="1" vertex="1">
          <mxGeometry x="3350" y="501.60999999999996" width="90" height="35" as="geometry" />
        </mxCell>
        <mxCell id="DTtZkwZOQEOStWwTzAfP-87" style="edgeStyle=orthogonalEdgeStyle;rounded=0;orthogonalLoop=1;jettySize=auto;html=1;exitX=0;exitY=0.5;exitDx=0;exitDy=0;entryX=1;entryY=0.5;entryDx=0;entryDy=0;" parent="1" source="ufHKqpi8NyHyEoY8DNFn-91" target="ufHKqpi8NyHyEoY8DNFn-9" edge="1">
          <mxGeometry relative="1" as="geometry" />
        </mxCell>
        <mxCell id="ufHKqpi8NyHyEoY8DNFn-91" value="carrier" style="ellipse;whiteSpace=wrap;html=1;" parent="1" vertex="1">
          <mxGeometry x="3350" y="421.60999999999996" width="90" height="35" as="geometry" />
        </mxCell>
        <mxCell id="DTtZkwZOQEOStWwTzAfP-86" style="edgeStyle=orthogonalEdgeStyle;rounded=0;orthogonalLoop=1;jettySize=auto;html=1;exitX=0;exitY=0.5;exitDx=0;exitDy=0;entryX=1;entryY=0.5;entryDx=0;entryDy=0;" parent="1" source="ufHKqpi8NyHyEoY8DNFn-92" target="ufHKqpi8NyHyEoY8DNFn-9" edge="1">
          <mxGeometry relative="1" as="geometry" />
        </mxCell>
        <mxCell id="ufHKqpi8NyHyEoY8DNFn-92" value="&lt;font style=&quot;font-size: 10px;&quot;&gt;Tracking_Number&lt;/font&gt;" style="ellipse;whiteSpace=wrap;html=1;" parent="1" vertex="1">
          <mxGeometry x="3350" y="381.64" width="90" height="35" as="geometry" />
        </mxCell>
        <mxCell id="DTtZkwZOQEOStWwTzAfP-130" style="edgeStyle=orthogonalEdgeStyle;rounded=0;orthogonalLoop=1;jettySize=auto;html=1;exitX=0;exitY=0.5;exitDx=0;exitDy=0;entryX=1;entryY=0.5;entryDx=0;entryDy=0;" parent="1" source="ufHKqpi8NyHyEoY8DNFn-102" target="ufHKqpi8NyHyEoY8DNFn-12" edge="1">
          <mxGeometry relative="1" as="geometry" />
        </mxCell>
        <mxCell id="ufHKqpi8NyHyEoY8DNFn-102" value="&lt;span style=&quot;font-size: 10px;&quot;&gt;Type&lt;/span&gt;" style="ellipse;whiteSpace=wrap;html=1;" parent="1" vertex="1">
          <mxGeometry x="1260" y="1650.06" width="90" height="35" as="geometry" />
        </mxCell>
        <mxCell id="DTtZkwZOQEOStWwTzAfP-129" style="edgeStyle=orthogonalEdgeStyle;rounded=0;orthogonalLoop=1;jettySize=auto;html=1;exitX=0;exitY=0.5;exitDx=0;exitDy=0;entryX=1;entryY=0.5;entryDx=0;entryDy=0;" parent="1" source="ufHKqpi8NyHyEoY8DNFn-103" target="ufHKqpi8NyHyEoY8DNFn-12" edge="1">
          <mxGeometry relative="1" as="geometry" />
        </mxCell>
        <mxCell id="ufHKqpi8NyHyEoY8DNFn-103" value="&lt;b&gt;&lt;u&gt;Transaction_ID&lt;/u&gt;&lt;/b&gt;" style="ellipse;whiteSpace=wrap;html=1;" parent="1" vertex="1">
          <mxGeometry x="1260" y="1600.06" width="90" height="35" as="geometry" />
        </mxCell>
        <mxCell id="DTtZkwZOQEOStWwTzAfP-132" style="edgeStyle=orthogonalEdgeStyle;rounded=0;orthogonalLoop=1;jettySize=auto;html=1;exitX=0;exitY=0.5;exitDx=0;exitDy=0;entryX=1;entryY=0.5;entryDx=0;entryDy=0;" parent="1" source="ufHKqpi8NyHyEoY8DNFn-104" target="ufHKqpi8NyHyEoY8DNFn-12" edge="1">
          <mxGeometry relative="1" as="geometry" />
        </mxCell>
        <mxCell id="ufHKqpi8NyHyEoY8DNFn-104" value="Reference_Type" style="ellipse;whiteSpace=wrap;html=1;" parent="1" vertex="1">
          <mxGeometry x="1260" y="1746.37" width="90" height="35" as="geometry" />
        </mxCell>
        <mxCell id="DTtZkwZOQEOStWwTzAfP-133" style="edgeStyle=orthogonalEdgeStyle;rounded=0;orthogonalLoop=1;jettySize=auto;html=1;exitX=0;exitY=0.5;exitDx=0;exitDy=0;entryX=1;entryY=0.5;entryDx=0;entryDy=0;" parent="1" source="ufHKqpi8NyHyEoY8DNFn-105" target="ufHKqpi8NyHyEoY8DNFn-12" edge="1">
          <mxGeometry relative="1" as="geometry" />
        </mxCell>
        <mxCell id="ufHKqpi8NyHyEoY8DNFn-105" value="Reference_ID" style="ellipse;whiteSpace=wrap;html=1;" parent="1" vertex="1">
          <mxGeometry x="1260" y="1795.0600000000002" width="90" height="35" as="geometry" />
        </mxCell>
        <mxCell id="DTtZkwZOQEOStWwTzAfP-131" style="edgeStyle=orthogonalEdgeStyle;rounded=0;orthogonalLoop=1;jettySize=auto;html=1;exitX=0;exitY=0.5;exitDx=0;exitDy=0;entryX=1;entryY=0.5;entryDx=0;entryDy=0;" parent="1" source="ufHKqpi8NyHyEoY8DNFn-106" target="ufHKqpi8NyHyEoY8DNFn-12" edge="1">
          <mxGeometry relative="1" as="geometry" />
        </mxCell>
        <mxCell id="ufHKqpi8NyHyEoY8DNFn-106" value="&lt;span style=&quot;font-size: 10px;&quot;&gt;Quantity&lt;/span&gt;" style="ellipse;whiteSpace=wrap;html=1;" parent="1" vertex="1">
          <mxGeometry x="1260" y="1699.12" width="90" height="35" as="geometry" />
        </mxCell>
        <mxCell id="ufHKqpi8NyHyEoY8DNFn-161" value="" style="endArrow=none;html=1;rounded=0;edgeStyle=orthogonalEdgeStyle;" parent="1" edge="1">
          <mxGeometry width="50" height="50" relative="1" as="geometry">
            <mxPoint x="2530" y="429" as="sourcePoint" />
            <mxPoint x="2930" y="429" as="targetPoint" />
          </mxGeometry>
        </mxCell>
        <mxCell id="ufHKqpi8NyHyEoY8DNFn-162" value="" style="endArrow=none;html=1;rounded=0;edgeStyle=orthogonalEdgeStyle;" parent="1" edge="1">
          <mxGeometry width="50" height="50" relative="1" as="geometry">
            <mxPoint x="2768" y="439" as="sourcePoint" />
            <mxPoint x="2768" y="429" as="targetPoint" />
          </mxGeometry>
        </mxCell>
        <mxCell id="ufHKqpi8NyHyEoY8DNFn-163" value="" style="endArrow=none;html=1;rounded=0;entryX=0.55;entryY=0.986;entryDx=0;entryDy=0;entryPerimeter=0;edgeStyle=orthogonalEdgeStyle;" parent="1" edge="1">
          <mxGeometry width="50" height="50" relative="1" as="geometry">
            <mxPoint x="2930" y="429" as="sourcePoint" />
            <mxPoint x="2929.5" y="413.51" as="targetPoint" />
          </mxGeometry>
        </mxCell>
        <mxCell id="ufHKqpi8NyHyEoY8DNFn-164" value="" style="endArrow=none;html=1;rounded=0;entryX=0.449;entryY=0.986;entryDx=0;entryDy=0;entryPerimeter=0;edgeStyle=orthogonalEdgeStyle;" parent="1" target="ufHKqpi8NyHyEoY8DNFn-75" edge="1">
          <mxGeometry width="50" height="50" relative="1" as="geometry">
            <mxPoint x="2820" y="429" as="sourcePoint" />
            <mxPoint x="2820" y="413" as="targetPoint" />
          </mxGeometry>
        </mxCell>
        <mxCell id="ufHKqpi8NyHyEoY8DNFn-165" value="" style="endArrow=none;html=1;rounded=0;entryX=0.554;entryY=0.992;entryDx=0;entryDy=0;entryPerimeter=0;edgeStyle=orthogonalEdgeStyle;" parent="1" target="ufHKqpi8NyHyEoY8DNFn-74" edge="1">
          <mxGeometry width="50" height="50" relative="1" as="geometry">
            <mxPoint x="2730" y="429" as="sourcePoint" />
            <mxPoint x="2780" y="409" as="targetPoint" />
          </mxGeometry>
        </mxCell>
        <mxCell id="ufHKqpi8NyHyEoY8DNFn-166" value="" style="endArrow=none;html=1;rounded=0;entryX=0.5;entryY=1;entryDx=0;entryDy=0;edgeStyle=orthogonalEdgeStyle;" parent="1" target="ufHKqpi8NyHyEoY8DNFn-77" edge="1">
          <mxGeometry width="50" height="50" relative="1" as="geometry">
            <mxPoint x="2625" y="429" as="sourcePoint" />
            <mxPoint x="2650" y="409" as="targetPoint" />
          </mxGeometry>
        </mxCell>
        <mxCell id="ufHKqpi8NyHyEoY8DNFn-167" value="" style="endArrow=none;html=1;rounded=0;entryX=0.556;entryY=1.005;entryDx=0;entryDy=0;entryPerimeter=0;edgeStyle=orthogonalEdgeStyle;" parent="1" target="ufHKqpi8NyHyEoY8DNFn-78" edge="1">
          <mxGeometry width="50" height="50" relative="1" as="geometry">
            <mxPoint x="2530" y="429" as="sourcePoint" />
            <mxPoint x="2530" y="409" as="targetPoint" />
          </mxGeometry>
        </mxCell>
        <mxCell id="DTtZkwZOQEOStWwTzAfP-4" style="edgeStyle=orthogonalEdgeStyle;rounded=0;orthogonalLoop=1;jettySize=auto;html=1;exitX=0.5;exitY=1;exitDx=0;exitDy=0;entryX=0;entryY=0.5;entryDx=0;entryDy=0;strokeColor=#0000FF;" parent="1" source="DTtZkwZOQEOStWwTzAfP-2" target="ToU6loC46J24oxrMq6Bs-27" edge="1">
          <mxGeometry relative="1" as="geometry" />
        </mxCell>
        <mxCell id="DTtZkwZOQEOStWwTzAfP-2" value="offers" style="rhombus;whiteSpace=wrap;html=1;" parent="1" vertex="1">
          <mxGeometry x="-430" y="971.5" width="80" height="80" as="geometry" />
        </mxCell>
        <mxCell id="DTtZkwZOQEOStWwTzAfP-5" value="&lt;b&gt;1:1&lt;/b&gt;" style="text;html=1;align=center;verticalAlign=middle;resizable=0;points=[];autosize=1;strokeColor=none;fillColor=none;" parent="1" vertex="1">
          <mxGeometry x="205" y="22" width="40" height="30" as="geometry" />
        </mxCell>
        <mxCell id="DTtZkwZOQEOStWwTzAfP-26" style="edgeStyle=orthogonalEdgeStyle;rounded=0;orthogonalLoop=1;jettySize=auto;html=1;exitX=0.5;exitY=1;exitDx=0;exitDy=0;entryX=0.25;entryY=0;entryDx=0;entryDy=0;strokeColor=#FF0000;shape=link;" parent="1" source="DTtZkwZOQEOStWwTzAfP-6" target="ufHKqpi8NyHyEoY8DNFn-1" edge="1">
          <mxGeometry relative="1" as="geometry" />
        </mxCell>
        <mxCell id="EyuBBjKlVLC_FoclDnfz-4" style="edgeStyle=orthogonalEdgeStyle;rounded=0;orthogonalLoop=1;jettySize=auto;html=1;exitX=0.5;exitY=0;exitDx=0;exitDy=0;entryX=0;entryY=0;entryDx=0;entryDy=0;strokeColor=#FF0000;shape=link;" parent="1" source="DTtZkwZOQEOStWwTzAfP-6" target="ToU6loC46J24oxrMq6Bs-9" edge="1">
          <mxGeometry relative="1" as="geometry" />
        </mxCell>
        <mxCell id="DTtZkwZOQEOStWwTzAfP-6" value="ISA" style="triangle;whiteSpace=wrap;html=1;direction=south;" parent="1" vertex="1">
          <mxGeometry x="210" y="52" width="80" height="60" as="geometry" />
        </mxCell>
        <mxCell id="DTtZkwZOQEOStWwTzAfP-10" style="edgeStyle=orthogonalEdgeStyle;rounded=0;orthogonalLoop=1;jettySize=auto;html=1;exitX=1;exitY=0.5;exitDx=0;exitDy=0;entryX=0;entryY=0.75;entryDx=0;entryDy=0;strokeColor=#663300;" parent="1" source="DTtZkwZOQEOStWwTzAfP-9" target="ToU6loC46J24oxrMq6Bs-27" edge="1">
          <mxGeometry relative="1" as="geometry" />
        </mxCell>
        <mxCell id="DTtZkwZOQEOStWwTzAfP-24" style="edgeStyle=orthogonalEdgeStyle;rounded=0;orthogonalLoop=1;jettySize=auto;html=1;exitX=0.5;exitY=1;exitDx=0;exitDy=0;strokeColor=#663300;" parent="1" source="DTtZkwZOQEOStWwTzAfP-9" target="DTtZkwZOQEOStWwTzAfP-23" edge="1">
          <mxGeometry relative="1" as="geometry" />
        </mxCell>
        <mxCell id="DTtZkwZOQEOStWwTzAfP-9" value="is included in" style="rhombus;whiteSpace=wrap;html=1;" parent="1" vertex="1">
          <mxGeometry x="-571" y="1391.56" width="80" height="80" as="geometry" />
        </mxCell>
        <mxCell id="DTtZkwZOQEOStWwTzAfP-23" value="Bundle" style="whiteSpace=wrap;html=1;aspect=fixed;" parent="1" vertex="1">
          <mxGeometry x="-571" y="1660" width="80" height="80" as="geometry" />
        </mxCell>
        <mxCell id="DTtZkwZOQEOStWwTzAfP-56" value="receives" style="rhombus;whiteSpace=wrap;html=1;" parent="1" vertex="1">
          <mxGeometry x="-390" y="405.37" width="80" height="80" as="geometry" />
        </mxCell>
        <mxCell id="DTtZkwZOQEOStWwTzAfP-61" style="edgeStyle=orthogonalEdgeStyle;rounded=0;orthogonalLoop=1;jettySize=auto;html=1;exitX=0;exitY=0.5;exitDx=0;exitDy=0;entryX=1;entryY=0.5;entryDx=0;entryDy=0;strokeColor=#0000FF;" parent="1" source="DTtZkwZOQEOStWwTzAfP-59" target="ufHKqpi8NyHyEoY8DNFn-2" edge="1">
          <mxGeometry relative="1" as="geometry" />
        </mxCell>
        <mxCell id="DTtZkwZOQEOStWwTzAfP-59" value="submit" style="rhombus;whiteSpace=wrap;html=1;" parent="1" vertex="1">
          <mxGeometry x="290" y="260" width="80" height="80" as="geometry" />
        </mxCell>
        <mxCell id="DTtZkwZOQEOStWwTzAfP-71" style="edgeStyle=orthogonalEdgeStyle;rounded=0;orthogonalLoop=1;jettySize=auto;html=1;exitX=1;exitY=0.5;exitDx=0;exitDy=0;strokeColor=#0000FF;" parent="1" source="DTtZkwZOQEOStWwTzAfP-65" target="ufHKqpi8NyHyEoY8DNFn-8" edge="1">
          <mxGeometry relative="1" as="geometry" />
        </mxCell>
        <mxCell id="DTtZkwZOQEOStWwTzAfP-65" value="initiates" style="rhombus;whiteSpace=wrap;html=1;" parent="1" vertex="1">
          <mxGeometry x="2290" y="438.81" width="80" height="80" as="geometry" />
        </mxCell>
        <mxCell id="DTtZkwZOQEOStWwTzAfP-68" value="has" style="rhombus;whiteSpace=wrap;html=1;" parent="1" vertex="1">
          <mxGeometry x="2400" y="780" width="80" height="80" as="geometry" />
        </mxCell>
        <mxCell id="EyuBBjKlVLC_FoclDnfz-18" style="edgeStyle=orthogonalEdgeStyle;rounded=0;orthogonalLoop=1;jettySize=auto;html=1;exitX=0.5;exitY=1;exitDx=0;exitDy=0;entryX=0.5;entryY=0;entryDx=0;entryDy=0;strokeColor=#00FF00;" parent="1" source="DTtZkwZOQEOStWwTzAfP-69" target="ufHKqpi8NyHyEoY8DNFn-10" edge="1">
          <mxGeometry relative="1" as="geometry" />
        </mxCell>
        <mxCell id="DTtZkwZOQEOStWwTzAfP-69" value="contains" style="rhombus;whiteSpace=wrap;html=1;" parent="1" vertex="1">
          <mxGeometry x="2735" y="600" width="80" height="80" as="geometry" />
        </mxCell>
        <mxCell id="DTtZkwZOQEOStWwTzAfP-83" style="edgeStyle=orthogonalEdgeStyle;rounded=0;orthogonalLoop=1;jettySize=auto;html=1;exitX=0.5;exitY=1;exitDx=0;exitDy=0;entryX=0.5;entryY=0;entryDx=0;entryDy=0;" parent="1" source="DTtZkwZOQEOStWwTzAfP-82" target="GPYepnfZ225K1OBBeHl1-3" edge="1">
          <mxGeometry relative="1" as="geometry">
            <Array as="points">
              <mxPoint x="1075" y="-60" />
              <mxPoint x="1325" y="-60" />
            </Array>
          </mxGeometry>
        </mxCell>
        <mxCell id="DTtZkwZOQEOStWwTzAfP-70" value="requires" style="rhombus;whiteSpace=wrap;html=1;" parent="1" vertex="1">
          <mxGeometry x="2980" y="438.80999999999995" width="80" height="80" as="geometry" />
        </mxCell>
        <mxCell id="DTtZkwZOQEOStWwTzAfP-82" value="&lt;b&gt;&lt;u&gt;Address_ID&lt;/u&gt;&lt;/b&gt;" style="ellipse;whiteSpace=wrap;html=1;" parent="1" vertex="1">
          <mxGeometry x="1030" y="-115" width="90" height="35" as="geometry" />
        </mxCell>
        <mxCell id="DTtZkwZOQEOStWwTzAfP-94" value="&lt;b&gt;1:1&lt;/b&gt;" style="text;html=1;align=center;verticalAlign=middle;resizable=0;points=[];autosize=1;strokeColor=none;fillColor=none;" parent="1" vertex="1">
          <mxGeometry x="3000" y="529.71" width="40" height="30" as="geometry" />
        </mxCell>
        <mxCell id="DTtZkwZOQEOStWwTzAfP-95" value="&lt;b&gt;1:1&lt;/b&gt;" style="text;html=1;align=center;verticalAlign=middle;resizable=0;points=[];autosize=1;strokeColor=none;fillColor=none;" parent="1" vertex="1">
          <mxGeometry x="2420" y="743.3100000000001" width="40" height="30" as="geometry" />
        </mxCell>
        <mxCell id="DTtZkwZOQEOStWwTzAfP-97" value="&lt;b&gt;1:M&lt;/b&gt;" style="text;html=1;align=center;verticalAlign=middle;resizable=0;points=[];autosize=1;strokeColor=none;fillColor=none;" parent="1" vertex="1">
          <mxGeometry x="2310" y="408.80999999999995" width="40" height="30" as="geometry" />
        </mxCell>
        <mxCell id="DTtZkwZOQEOStWwTzAfP-98" value="&lt;b&gt;M:1&lt;/b&gt;" style="text;html=1;align=center;verticalAlign=middle;resizable=0;points=[];autosize=1;strokeColor=none;fillColor=none;" parent="1" vertex="1">
          <mxGeometry x="2690" y="623.56" width="40" height="30" as="geometry" />
        </mxCell>
        <mxCell id="DTtZkwZOQEOStWwTzAfP-100" value="&lt;b&gt;1:M&lt;/b&gt;" style="text;html=1;align=center;verticalAlign=middle;resizable=0;points=[];autosize=1;strokeColor=none;fillColor=none;" parent="1" vertex="1">
          <mxGeometry x="-305" y="432.25" width="40" height="30" as="geometry" />
        </mxCell>
        <mxCell id="DTtZkwZOQEOStWwTzAfP-115" value="&lt;b&gt;M:1&lt;/b&gt;" style="text;html=1;align=center;verticalAlign=middle;resizable=0;points=[];autosize=1;strokeColor=none;fillColor=none;" parent="1" vertex="1">
          <mxGeometry x="40" y="996.5" width="40" height="30" as="geometry" />
        </mxCell>
        <mxCell id="DTtZkwZOQEOStWwTzAfP-116" value="&lt;b&gt;1:M&lt;/b&gt;" style="text;html=1;align=center;verticalAlign=middle;resizable=0;points=[];autosize=1;strokeColor=none;fillColor=none;" parent="1" vertex="1">
          <mxGeometry x="-350" y="1004" width="40" height="30" as="geometry" />
        </mxCell>
        <mxCell id="DTtZkwZOQEOStWwTzAfP-117" value="&lt;b&gt;M:M&lt;/b&gt;" style="text;html=1;align=center;verticalAlign=middle;resizable=0;points=[];autosize=1;strokeColor=none;fillColor=none;" parent="1" vertex="1">
          <mxGeometry x="-510" y="1451.06" width="50" height="30" as="geometry" />
        </mxCell>
        <mxCell id="DTtZkwZOQEOStWwTzAfP-118" value="" style="endArrow=none;dashed=1;html=1;dashPattern=1 3;strokeWidth=2;rounded=0;exitX=1;exitY=0.5;exitDx=0;exitDy=0;entryX=0;entryY=0.5;entryDx=0;entryDy=0;strokeColor=#FF0000;edgeStyle=orthogonalEdgeStyle;" parent="1" source="DTtZkwZOQEOStWwTzAfP-96" target="ufHKqpi8NyHyEoY8DNFn-10" edge="1">
          <mxGeometry width="50" height="50" relative="1" as="geometry">
            <mxPoint x="2530" y="870" as="sourcePoint" />
            <mxPoint x="2580" y="820" as="targetPoint" />
          </mxGeometry>
        </mxCell>
        <mxCell id="DTtZkwZOQEOStWwTzAfP-119" value="" style="endArrow=none;dashed=1;html=1;dashPattern=1 3;strokeWidth=2;rounded=0;exitX=0.5;exitY=1;exitDx=0;exitDy=0;entryX=0.5;entryY=0;entryDx=0;entryDy=0;strokeColor=#FF0000;edgeStyle=orthogonalEdgeStyle;" parent="1" source="DTtZkwZOQEOStWwTzAfP-96" target="ToU6loC46J24oxrMq6Bs-52" edge="1">
          <mxGeometry width="50" height="50" relative="1" as="geometry">
            <mxPoint x="2530" y="870" as="sourcePoint" />
            <mxPoint x="2580" y="820" as="targetPoint" />
          </mxGeometry>
        </mxCell>
        <mxCell id="DTtZkwZOQEOStWwTzAfP-135" style="edgeStyle=orthogonalEdgeStyle;rounded=0;orthogonalLoop=1;jettySize=auto;html=1;exitX=0.5;exitY=1;exitDx=0;exitDy=0;entryX=0.5;entryY=0;entryDx=0;entryDy=0;strokeColor=#0000FF;" parent="1" target="ufHKqpi8NyHyEoY8DNFn-12" edge="1">
          <mxGeometry relative="1" as="geometry">
            <mxPoint x="1145" y="1551.5600000000004" as="sourcePoint" />
          </mxGeometry>
        </mxCell>
        <mxCell id="DTtZkwZOQEOStWwTzAfP-134" style="edgeStyle=orthogonalEdgeStyle;rounded=0;orthogonalLoop=1;jettySize=auto;html=1;exitX=0.5;exitY=1;exitDx=0;exitDy=0;entryX=0.5;entryY=0;entryDx=0;entryDy=0;strokeColor=#0000FF;" parent="1" target="ufHKqpi8NyHyEoY8DNFn-11" edge="1">
          <mxGeometry relative="1" as="geometry">
            <mxPoint x="850" y="1551.5600000000004" as="sourcePoint" />
          </mxGeometry>
        </mxCell>
        <mxCell id="DTtZkwZOQEOStWwTzAfP-128" style="edgeStyle=orthogonalEdgeStyle;rounded=0;orthogonalLoop=1;jettySize=auto;html=1;exitX=0.5;exitY=0;exitDx=0;exitDy=0;entryX=0.5;entryY=1;entryDx=0;entryDy=0;strokeColor=#0000FF;" parent="1" source="DTtZkwZOQEOStWwTzAfP-122" target="ufHKqpi8NyHyEoY8DNFn-12" edge="1">
          <mxGeometry relative="1" as="geometry" />
        </mxCell>
        <mxCell id="DTtZkwZOQEOStWwTzAfP-122" value="processes" style="rhombus;whiteSpace=wrap;html=1;" parent="1" vertex="1">
          <mxGeometry x="1105" y="1906.06" width="80" height="80" as="geometry" />
        </mxCell>
        <mxCell id="DTtZkwZOQEOStWwTzAfP-125" style="edgeStyle=orthogonalEdgeStyle;rounded=0;orthogonalLoop=1;jettySize=auto;html=1;exitX=0.5;exitY=0;exitDx=0;exitDy=0;entryX=0.5;entryY=1;entryDx=0;entryDy=0;strokeColor=#0000FF;" parent="1" source="DTtZkwZOQEOStWwTzAfP-123" target="ufHKqpi8NyHyEoY8DNFn-11" edge="1">
          <mxGeometry relative="1" as="geometry" />
        </mxCell>
        <mxCell id="DTtZkwZOQEOStWwTzAfP-123" value="stores" style="rhombus;whiteSpace=wrap;html=1;" parent="1" vertex="1">
          <mxGeometry x="810" y="1906.06" width="80" height="80" as="geometry" />
        </mxCell>
        <mxCell id="DTtZkwZOQEOStWwTzAfP-124" value="&lt;b&gt;1:M&lt;/b&gt;" style="text;html=1;align=center;verticalAlign=middle;resizable=0;points=[];autosize=1;strokeColor=none;fillColor=none;" parent="1" vertex="1">
          <mxGeometry x="890" y="1931.06" width="40" height="30" as="geometry" />
        </mxCell>
        <mxCell id="DTtZkwZOQEOStWwTzAfP-127" style="edgeStyle=orthogonalEdgeStyle;rounded=0;orthogonalLoop=1;jettySize=auto;html=1;exitX=0.75;exitY=0;exitDx=0;exitDy=0;entryX=0.508;entryY=0.929;entryDx=0;entryDy=0;entryPerimeter=0;strokeColor=#0000FF;" parent="1" target="DTtZkwZOQEOStWwTzAfP-122" edge="1">
          <mxGeometry relative="1" as="geometry">
            <mxPoint x="1020" y="2186.0600000000004" as="sourcePoint" />
          </mxGeometry>
        </mxCell>
        <mxCell id="DTtZkwZOQEOStWwTzAfP-139" value="&lt;b&gt;1:M&lt;/b&gt;" style="text;html=1;align=center;verticalAlign=middle;resizable=0;points=[];autosize=1;strokeColor=none;fillColor=none;" parent="1" vertex="1">
          <mxGeometry x="1180" y="1931.06" width="40" height="30" as="geometry" />
        </mxCell>
        <mxCell id="DTtZkwZOQEOStWwTzAfP-140" value="&lt;b&gt;1:M&lt;/b&gt;" style="text;html=1;align=center;verticalAlign=middle;resizable=0;points=[];autosize=1;strokeColor=none;fillColor=none;" parent="1" vertex="1">
          <mxGeometry x="1067" y="1496.56" width="40" height="30" as="geometry" />
        </mxCell>
        <mxCell id="DTtZkwZOQEOStWwTzAfP-141" value="&lt;b&gt;1:M&lt;/b&gt;" style="text;html=1;align=center;verticalAlign=middle;resizable=0;points=[];autosize=1;strokeColor=none;fillColor=none;" parent="1" vertex="1">
          <mxGeometry x="890" y="1496.56" width="40" height="30" as="geometry" />
        </mxCell>
        <mxCell id="DTtZkwZOQEOStWwTzAfP-152" style="edgeStyle=orthogonalEdgeStyle;rounded=0;orthogonalLoop=1;jettySize=auto;html=1;exitX=1;exitY=0.5;exitDx=0;exitDy=0;entryX=0;entryY=0.5;entryDx=0;entryDy=0;" parent="1" source="DTtZkwZOQEOStWwTzAfP-143" target="ufHKqpi8NyHyEoY8DNFn-1" edge="1">
          <mxGeometry relative="1" as="geometry" />
        </mxCell>
        <mxCell id="DTtZkwZOQEOStWwTzAfP-143" value="address" style="ellipse;whiteSpace=wrap;html=1;" parent="1" vertex="1">
          <mxGeometry x="-560" y="810" width="90" height="35" as="geometry" />
        </mxCell>
        <mxCell id="DTtZkwZOQEOStWwTzAfP-166" style="edgeStyle=orthogonalEdgeStyle;rounded=0;orthogonalLoop=1;jettySize=auto;html=1;exitX=1;exitY=0.5;exitDx=0;exitDy=0;entryX=0;entryY=0.5;entryDx=0;entryDy=0;" parent="1" source="DTtZkwZOQEOStWwTzAfP-154" target="DTtZkwZOQEOStWwTzAfP-163" edge="1">
          <mxGeometry relative="1" as="geometry" />
        </mxCell>
        <mxCell id="DTtZkwZOQEOStWwTzAfP-154" value="&lt;div&gt;city&lt;/div&gt;" style="ellipse;whiteSpace=wrap;html=1;" parent="1" vertex="1">
          <mxGeometry x="-700" y="832.4999999999999" width="90" height="35" as="geometry" />
        </mxCell>
        <mxCell id="DTtZkwZOQEOStWwTzAfP-167" style="edgeStyle=orthogonalEdgeStyle;rounded=0;orthogonalLoop=1;jettySize=auto;html=1;exitX=1;exitY=0.5;exitDx=0;exitDy=0;entryX=0;entryY=0.5;entryDx=0;entryDy=0;" parent="1" source="DTtZkwZOQEOStWwTzAfP-156" target="DTtZkwZOQEOStWwTzAfP-163" edge="1">
          <mxGeometry relative="1" as="geometry" />
        </mxCell>
        <mxCell id="DTtZkwZOQEOStWwTzAfP-156" value="zip code" style="ellipse;whiteSpace=wrap;html=1;" parent="1" vertex="1">
          <mxGeometry x="-700" y="870.71" width="90" height="35" as="geometry" />
        </mxCell>
        <mxCell id="DTtZkwZOQEOStWwTzAfP-165" style="edgeStyle=orthogonalEdgeStyle;rounded=0;orthogonalLoop=1;jettySize=auto;html=1;exitX=1;exitY=0.5;exitDx=0;exitDy=0;entryX=0;entryY=0.5;entryDx=0;entryDy=0;" parent="1" source="DTtZkwZOQEOStWwTzAfP-158" target="DTtZkwZOQEOStWwTzAfP-163" edge="1">
          <mxGeometry relative="1" as="geometry" />
        </mxCell>
        <mxCell id="DTtZkwZOQEOStWwTzAfP-158" value="street" style="ellipse;whiteSpace=wrap;html=1;" parent="1" vertex="1">
          <mxGeometry x="-700" y="795" width="90" height="35" as="geometry" />
        </mxCell>
        <mxCell id="DTtZkwZOQEOStWwTzAfP-164" style="edgeStyle=orthogonalEdgeStyle;rounded=0;orthogonalLoop=1;jettySize=auto;html=1;exitX=1;exitY=0.5;exitDx=0;exitDy=0;entryX=0;entryY=0.5;entryDx=0;entryDy=0;" parent="1" source="DTtZkwZOQEOStWwTzAfP-160" target="DTtZkwZOQEOStWwTzAfP-163" edge="1">
          <mxGeometry relative="1" as="geometry" />
        </mxCell>
        <mxCell id="DTtZkwZOQEOStWwTzAfP-160" value="state" style="ellipse;whiteSpace=wrap;html=1;" parent="1" vertex="1">
          <mxGeometry x="-700" y="755.81" width="90" height="35" as="geometry" />
        </mxCell>
        <mxCell id="a7dV4E0T_Zjt77kAnCjl-1" value="&lt;b&gt;1:M&lt;/b&gt;" style="text;html=1;align=center;verticalAlign=middle;resizable=0;points=[];autosize=1;strokeColor=none;fillColor=none;" parent="1" vertex="1">
          <mxGeometry x="360" y="262.62" width="40" height="30" as="geometry" />
        </mxCell>
        <mxCell id="EyuBBjKlVLC_FoclDnfz-7" value="" style="endArrow=none;html=1;rounded=0;exitX=1;exitY=0.5;exitDx=0;exitDy=0;entryX=0;entryY=0.5;entryDx=0;entryDy=0;strokeColor=#0000FF;" parent="1" source="ToU6loC46J24oxrMq6Bs-9" target="ToU6loC46J24oxrMq6Bs-31" edge="1">
          <mxGeometry width="50" height="50" relative="1" as="geometry">
            <mxPoint x="1510" y="290" as="sourcePoint" />
            <mxPoint x="1560" y="240" as="targetPoint" />
          </mxGeometry>
        </mxCell>
        <mxCell id="EyuBBjKlVLC_FoclDnfz-9" value="" style="endArrow=none;html=1;rounded=0;exitX=0.75;exitY=0;exitDx=0;exitDy=0;entryX=0;entryY=0.5;entryDx=0;entryDy=0;edgeStyle=orthogonalEdgeStyle;strokeColor=#0000FF;" parent="1" source="GPYepnfZ225K1OBBeHl1-18" target="GPYepnfZ225K1OBBeHl1-57" edge="1">
          <mxGeometry width="50" height="50" relative="1" as="geometry">
            <mxPoint x="1510" y="360" as="sourcePoint" />
            <mxPoint x="1560" y="310" as="targetPoint" />
          </mxGeometry>
        </mxCell>
        <mxCell id="EyuBBjKlVLC_FoclDnfz-10" value="" style="endArrow=none;html=1;rounded=0;entryX=0.5;entryY=1;entryDx=0;entryDy=0;exitX=0;exitY=0.5;exitDx=0;exitDy=0;strokeColor=#FF0000;" parent="1" source="DTtZkwZOQEOStWwTzAfP-6" target="ToU6loC46J24oxrMq6Bs-6" edge="1">
          <mxGeometry width="50" height="50" relative="1" as="geometry">
            <mxPoint x="320" y="210" as="sourcePoint" />
            <mxPoint x="370" y="160" as="targetPoint" />
          </mxGeometry>
        </mxCell>
        <mxCell id="EyuBBjKlVLC_FoclDnfz-11" value="" style="endArrow=none;html=1;rounded=0;exitX=1;exitY=0.5;exitDx=0;exitDy=0;entryX=0;entryY=0.5;entryDx=0;entryDy=0;strokeColor=#0000FF;" parent="1" source="DTtZkwZOQEOStWwTzAfP-59" target="ToU6loC46J24oxrMq6Bs-9" edge="1">
          <mxGeometry width="50" height="50" relative="1" as="geometry">
            <mxPoint x="460" y="330" as="sourcePoint" />
            <mxPoint x="510" y="280" as="targetPoint" />
          </mxGeometry>
        </mxCell>
        <mxCell id="EyuBBjKlVLC_FoclDnfz-13" value="" style="endArrow=none;html=1;rounded=0;exitX=1;exitY=1;exitDx=0;exitDy=0;entryX=0;entryY=0.5;entryDx=0;entryDy=0;edgeStyle=orthogonalEdgeStyle;strokeColor=#663300;" parent="1" source="ToU6loC46J24oxrMq6Bs-9" target="GPYepnfZ225K1OBBeHl1-62" edge="1">
          <mxGeometry width="50" height="50" relative="1" as="geometry">
            <mxPoint x="1490" y="440" as="sourcePoint" />
            <mxPoint x="1540" y="390" as="targetPoint" />
          </mxGeometry>
        </mxCell>
        <mxCell id="EyuBBjKlVLC_FoclDnfz-15" value="" style="endArrow=none;html=1;rounded=0;exitX=1;exitY=1;exitDx=0;exitDy=0;entryX=0;entryY=0.5;entryDx=0;entryDy=0;edgeStyle=orthogonalEdgeStyle;strokeColor=#0000FF;" parent="1" source="ToU6loC46J24oxrMq6Bs-9" target="DTtZkwZOQEOStWwTzAfP-65" edge="1">
          <mxGeometry width="50" height="50" relative="1" as="geometry">
            <mxPoint x="1200" y="280" as="sourcePoint" />
            <mxPoint x="1250" y="230" as="targetPoint" />
            <Array as="points">
              <mxPoint x="1000" y="350" />
              <mxPoint x="2290" y="350" />
            </Array>
          </mxGeometry>
        </mxCell>
        <mxCell id="EyuBBjKlVLC_FoclDnfz-19" value="" style="endArrow=none;html=1;rounded=0;entryX=0.5;entryY=1;entryDx=0;entryDy=0;exitX=0.5;exitY=0;exitDx=0;exitDy=0;strokeColor=#00FF00;" parent="1" source="DTtZkwZOQEOStWwTzAfP-69" target="ufHKqpi8NyHyEoY8DNFn-8" edge="1">
          <mxGeometry width="50" height="50" relative="1" as="geometry">
            <mxPoint x="2890" y="720" as="sourcePoint" />
            <mxPoint x="2940" y="670" as="targetPoint" />
          </mxGeometry>
        </mxCell>
        <mxCell id="EyuBBjKlVLC_FoclDnfz-20" value="" style="endArrow=none;html=1;rounded=0;exitX=0.75;exitY=1;exitDx=0;exitDy=0;entryX=0;entryY=0.5;entryDx=0;entryDy=0;edgeStyle=orthogonalEdgeStyle;strokeColor=#00FF00;" parent="1" source="ToU6loC46J24oxrMq6Bs-33" target="ToU6loC46J24oxrMq6Bs-49" edge="1">
          <mxGeometry width="50" height="50" relative="1" as="geometry">
            <mxPoint x="2150" y="640" as="sourcePoint" />
            <mxPoint x="2200" y="590" as="targetPoint" />
          </mxGeometry>
        </mxCell>
        <mxCell id="EyuBBjKlVLC_FoclDnfz-22" value="" style="endArrow=none;html=1;rounded=0;exitX=1;exitY=0;exitDx=0;exitDy=0;entryX=0;entryY=0.5;entryDx=0;entryDy=0;edgeStyle=orthogonalEdgeStyle;strokeColor=#00FF00;" parent="1" source="ToU6loC46J24oxrMq6Bs-27" target="ToU6loC46J24oxrMq6Bs-330" edge="1">
          <mxGeometry width="50" height="50" relative="1" as="geometry">
            <mxPoint x="840" y="1200" as="sourcePoint" />
            <mxPoint x="890" y="1150" as="targetPoint" />
          </mxGeometry>
        </mxCell>
        <mxCell id="EyuBBjKlVLC_FoclDnfz-23" value="&lt;span style=&quot;background-color: rgb(255, 255, 255);&quot;&gt;undergoes&lt;/span&gt;" style="rhombus;whiteSpace=wrap;html=1;" parent="1" vertex="1">
          <mxGeometry x="1105" y="1471.56" width="80" height="80" as="geometry" />
        </mxCell>
        <mxCell id="EyuBBjKlVLC_FoclDnfz-24" value="&lt;span style=&quot;background-color: rgb(255, 255, 255);&quot;&gt;is stocked in&lt;/span&gt;" style="rhombus;whiteSpace=wrap;html=1;" parent="1" vertex="1">
          <mxGeometry x="810" y="1471.56" width="80" height="80" as="geometry" />
        </mxCell>
        <mxCell id="EyuBBjKlVLC_FoclDnfz-45" value="&lt;meta charset=&quot;utf-8&quot;&gt;Warehouse" style="whiteSpace=wrap;html=1;aspect=fixed;" parent="1" vertex="1">
          <mxGeometry x="960" y="2170" width="80" height="80" as="geometry" />
        </mxCell>
        <mxCell id="EyuBBjKlVLC_FoclDnfz-46" value="&lt;b&gt;&lt;u&gt;Warejouse_ID&lt;/u&gt;&lt;/b&gt;" style="ellipse;whiteSpace=wrap;html=1;" parent="1" vertex="1">
          <mxGeometry x="805" y="2290" width="90" height="35" as="geometry" />
        </mxCell>
        <mxCell id="EyuBBjKlVLC_FoclDnfz-47" value="Name" style="ellipse;whiteSpace=wrap;html=1;" parent="1" vertex="1">
          <mxGeometry x="905" y="2290" width="90" height="35" as="geometry" />
        </mxCell>
        <mxCell id="EyuBBjKlVLC_FoclDnfz-48" value="&lt;div&gt;Location&lt;/div&gt;" style="ellipse;whiteSpace=wrap;html=1;" parent="1" vertex="1">
          <mxGeometry x="1005" y="2290" width="90" height="35" as="geometry" />
        </mxCell>
        <mxCell id="EyuBBjKlVLC_FoclDnfz-49" value="status" style="ellipse;whiteSpace=wrap;html=1;" parent="1" vertex="1">
          <mxGeometry x="1105" y="2290" width="90" height="35" as="geometry" />
        </mxCell>
        <mxCell id="EyuBBjKlVLC_FoclDnfz-50" value="" style="endArrow=none;html=1;rounded=0;exitX=0.5;exitY=0;exitDx=0;exitDy=0;" parent="1" source="EyuBBjKlVLC_FoclDnfz-46" edge="1">
          <mxGeometry width="50" height="50" relative="1" as="geometry">
            <mxPoint x="960" y="2300" as="sourcePoint" />
            <mxPoint x="1000" y="2250" as="targetPoint" />
            <Array as="points">
              <mxPoint x="850" y="2270" />
              <mxPoint x="1000" y="2270" />
            </Array>
          </mxGeometry>
        </mxCell>
        <mxCell id="EyuBBjKlVLC_FoclDnfz-51" value="" style="endArrow=none;html=1;rounded=0;exitX=0.5;exitY=0;exitDx=0;exitDy=0;" parent="1" source="EyuBBjKlVLC_FoclDnfz-47" edge="1">
          <mxGeometry width="50" height="50" relative="1" as="geometry">
            <mxPoint x="970" y="2290" as="sourcePoint" />
            <mxPoint x="1000" y="2270" as="targetPoint" />
            <Array as="points">
              <mxPoint x="950" y="2270" />
            </Array>
          </mxGeometry>
        </mxCell>
        <mxCell id="EyuBBjKlVLC_FoclDnfz-52" value="" style="endArrow=none;html=1;rounded=0;exitX=0.5;exitY=0;exitDx=0;exitDy=0;" parent="1" source="EyuBBjKlVLC_FoclDnfz-48" edge="1">
          <mxGeometry width="50" height="50" relative="1" as="geometry">
            <mxPoint x="1040" y="2290" as="sourcePoint" />
            <mxPoint x="970" y="2270" as="targetPoint" />
            <Array as="points">
              <mxPoint x="1050" y="2270" />
            </Array>
          </mxGeometry>
        </mxCell>
        <mxCell id="EyuBBjKlVLC_FoclDnfz-53" value="" style="endArrow=none;html=1;rounded=0;" parent="1" source="EyuBBjKlVLC_FoclDnfz-49" edge="1">
          <mxGeometry width="50" height="50" relative="1" as="geometry">
            <mxPoint x="1150" y="2269.289321881345" as="sourcePoint" />
            <mxPoint x="1050" y="2270" as="targetPoint" />
            <Array as="points">
              <mxPoint x="1150" y="2270" />
            </Array>
          </mxGeometry>
        </mxCell>
        <mxCell id="EyuBBjKlVLC_FoclDnfz-54" value="&lt;div&gt;&lt;font style=&quot;font-size: 10px;&quot;&gt;Minimum_Quantity&lt;/font&gt;&lt;/div&gt;" style="ellipse;whiteSpace=wrap;html=1;" parent="1" vertex="1">
          <mxGeometry x="680" y="1726.06" width="90" height="35" as="geometry" />
        </mxCell>
        <mxCell id="EyuBBjKlVLC_FoclDnfz-55" value="Quantity" style="ellipse;whiteSpace=wrap;html=1;" parent="1" vertex="1">
          <mxGeometry x="680" y="1676.06" width="90" height="35" as="geometry" />
        </mxCell>
        <mxCell id="EyuBBjKlVLC_FoclDnfz-56" value="&lt;div&gt;Last_Updated&lt;/div&gt;" style="ellipse;whiteSpace=wrap;html=1;" parent="1" vertex="1">
          <mxGeometry x="680" y="1822.37" width="90" height="35" as="geometry" />
        </mxCell>
        <mxCell id="EyuBBjKlVLC_FoclDnfz-57" value="&lt;div&gt;status&lt;/div&gt;" style="ellipse;whiteSpace=wrap;html=1;" parent="1" vertex="1">
          <mxGeometry x="680" y="1871.0600000000002" width="90" height="35" as="geometry" />
        </mxCell>
        <mxCell id="EyuBBjKlVLC_FoclDnfz-58" value="&lt;font style=&quot;font-size: 10px;&quot;&gt;Maximum_Quantity&lt;/font&gt;" style="ellipse;whiteSpace=wrap;html=1;" parent="1" vertex="1">
          <mxGeometry x="680" y="1775.12" width="90" height="35" as="geometry" />
        </mxCell>
        <mxCell id="EyuBBjKlVLC_FoclDnfz-59" value="" style="endArrow=none;html=1;rounded=0;exitX=1;exitY=0.5;exitDx=0;exitDy=0;" parent="1" source="EyuBBjKlVLC_FoclDnfz-57" edge="1">
          <mxGeometry width="50" height="50" relative="1" as="geometry">
            <mxPoint x="790" y="1896.06" as="sourcePoint" />
            <mxPoint x="790" y="1696.06" as="targetPoint" />
            <Array as="points">
              <mxPoint x="790" y="1888.06" />
            </Array>
          </mxGeometry>
        </mxCell>
        <mxCell id="EyuBBjKlVLC_FoclDnfz-60" value="" style="endArrow=none;html=1;rounded=0;exitX=1;exitY=0.5;exitDx=0;exitDy=0;" parent="1" source="EyuBBjKlVLC_FoclDnfz-56" edge="1">
          <mxGeometry width="50" height="50" relative="1" as="geometry">
            <mxPoint x="760" y="1886.06" as="sourcePoint" />
            <mxPoint x="790" y="1840.06" as="targetPoint" />
          </mxGeometry>
        </mxCell>
        <mxCell id="EyuBBjKlVLC_FoclDnfz-61" value="" style="endArrow=none;html=1;rounded=0;exitX=1;exitY=0.5;exitDx=0;exitDy=0;" parent="1" source="EyuBBjKlVLC_FoclDnfz-58" edge="1">
          <mxGeometry width="50" height="50" relative="1" as="geometry">
            <mxPoint x="760" y="1826.06" as="sourcePoint" />
            <mxPoint x="790" y="1793.06" as="targetPoint" />
          </mxGeometry>
        </mxCell>
        <mxCell id="EyuBBjKlVLC_FoclDnfz-62" value="" style="endArrow=none;html=1;rounded=0;exitX=1;exitY=0.5;exitDx=0;exitDy=0;" parent="1" source="EyuBBjKlVLC_FoclDnfz-54" edge="1">
          <mxGeometry width="50" height="50" relative="1" as="geometry">
            <mxPoint x="760" y="1786.06" as="sourcePoint" />
            <mxPoint x="790" y="1743.06" as="targetPoint" />
          </mxGeometry>
        </mxCell>
        <mxCell id="EyuBBjKlVLC_FoclDnfz-63" value="" style="endArrow=none;html=1;rounded=0;" parent="1" edge="1">
          <mxGeometry width="50" height="50" relative="1" as="geometry">
            <mxPoint x="770" y="1696.06" as="sourcePoint" />
            <mxPoint x="790" y="1696.06" as="targetPoint" />
          </mxGeometry>
        </mxCell>
        <mxCell id="EyuBBjKlVLC_FoclDnfz-64" value="" style="endArrow=none;html=1;rounded=0;entryX=-0.008;entryY=0.574;entryDx=0;entryDy=0;entryPerimeter=0;" parent="1" edge="1">
          <mxGeometry width="50" height="50" relative="1" as="geometry">
            <mxPoint x="790" y="1786.06" as="sourcePoint" />
            <mxPoint x="809" y="1722" as="targetPoint" />
            <Array as="points">
              <mxPoint x="790" y="1722.06" />
            </Array>
          </mxGeometry>
        </mxCell>
        <mxCell id="y91lAwJKIq8Cgb1tKM8N-1" value="&lt;pre&gt;Ticket&lt;/pre&gt;" style="whiteSpace=wrap;html=1;aspect=fixed;" parent="1" vertex="1">
          <mxGeometry x="-566" y="-277.5" width="80" height="80" as="geometry" />
        </mxCell>
        <mxCell id="y91lAwJKIq8Cgb1tKM8N-3" style="edgeStyle=orthogonalEdgeStyle;rounded=0;orthogonalLoop=1;jettySize=auto;html=1;exitX=0.5;exitY=1;exitDx=0;exitDy=0;entryX=0.5;entryY=0;entryDx=0;entryDy=0;" parent="1" source="y91lAwJKIq8Cgb1tKM8N-4" edge="1">
          <mxGeometry relative="1" as="geometry">
            <mxPoint x="-526" y="-277.5" as="targetPoint" />
          </mxGeometry>
        </mxCell>
        <mxCell id="y91lAwJKIq8Cgb1tKM8N-4" value="&lt;b&gt;&lt;u&gt;Ticket_ID&lt;/u&gt;&lt;/b&gt;" style="ellipse;whiteSpace=wrap;html=1;" parent="1" vertex="1">
          <mxGeometry x="-776" y="-390" width="90" height="35" as="geometry" />
        </mxCell>
        <mxCell id="y91lAwJKIq8Cgb1tKM8N-5" style="edgeStyle=orthogonalEdgeStyle;rounded=0;orthogonalLoop=1;jettySize=auto;html=1;exitX=0.5;exitY=1;exitDx=0;exitDy=0;entryX=0.5;entryY=0;entryDx=0;entryDy=0;" parent="1" source="y91lAwJKIq8Cgb1tKM8N-6" edge="1">
          <mxGeometry relative="1" as="geometry">
            <mxPoint x="-526" y="-277.5" as="targetPoint" />
          </mxGeometry>
        </mxCell>
        <mxCell id="y91lAwJKIq8Cgb1tKM8N-6" value="&lt;pre&gt;type&lt;/pre&gt;" style="ellipse;whiteSpace=wrap;html=1;" parent="1" vertex="1">
          <mxGeometry x="-571" y="-390" width="90" height="35" as="geometry" />
        </mxCell>
        <mxCell id="y91lAwJKIq8Cgb1tKM8N-7" style="edgeStyle=orthogonalEdgeStyle;rounded=0;orthogonalLoop=1;jettySize=auto;html=1;exitX=0.5;exitY=1;exitDx=0;exitDy=0;entryX=0.5;entryY=0;entryDx=0;entryDy=0;" parent="1" source="y91lAwJKIq8Cgb1tKM8N-8" edge="1">
          <mxGeometry relative="1" as="geometry">
            <mxPoint x="-526" y="-277.5" as="targetPoint" />
          </mxGeometry>
        </mxCell>
        <mxCell id="y91lAwJKIq8Cgb1tKM8N-8" value="&lt;pre&gt;title&lt;/pre&gt;" style="ellipse;whiteSpace=wrap;html=1;" parent="1" vertex="1">
          <mxGeometry x="-471" y="-390" width="90" height="35" as="geometry" />
        </mxCell>
        <mxCell id="y91lAwJKIq8Cgb1tKM8N-9" style="edgeStyle=orthogonalEdgeStyle;rounded=0;orthogonalLoop=1;jettySize=auto;html=1;exitX=0.5;exitY=1;exitDx=0;exitDy=0;entryX=0.5;entryY=0;entryDx=0;entryDy=0;" parent="1" source="y91lAwJKIq8Cgb1tKM8N-10" edge="1">
          <mxGeometry relative="1" as="geometry">
            <mxPoint x="-526" y="-277.5" as="targetPoint" />
          </mxGeometry>
        </mxCell>
        <mxCell id="y91lAwJKIq8Cgb1tKM8N-10" value="&lt;pre&gt;status&lt;/pre&gt;" style="ellipse;whiteSpace=wrap;html=1;" parent="1" vertex="1">
          <mxGeometry x="-376" y="-390" width="90" height="35" as="geometry" />
        </mxCell>
        <mxCell id="y91lAwJKIq8Cgb1tKM8N-31" style="edgeStyle=orthogonalEdgeStyle;rounded=0;orthogonalLoop=1;jettySize=auto;html=1;exitX=0.5;exitY=1;exitDx=0;exitDy=0;" parent="1" source="y91lAwJKIq8Cgb1tKM8N-11" target="y91lAwJKIq8Cgb1tKM8N-1" edge="1">
          <mxGeometry relative="1" as="geometry" />
        </mxCell>
        <mxCell id="y91lAwJKIq8Cgb1tKM8N-11" value="&lt;pre&gt;priority&lt;/pre&gt;" style="ellipse;whiteSpace=wrap;html=1;" parent="1" vertex="1">
          <mxGeometry x="-676" y="-390" width="90" height="35" as="geometry" />
        </mxCell>
        <mxCell id="y91lAwJKIq8Cgb1tKM8N-12" value="&lt;pre&gt;Message&lt;/pre&gt;" style="whiteSpace=wrap;html=1;aspect=fixed;" parent="1" vertex="1">
          <mxGeometry x="-566" y="-20" width="80" height="80" as="geometry" />
        </mxCell>
        <mxCell id="y91lAwJKIq8Cgb1tKM8N-17" style="edgeStyle=orthogonalEdgeStyle;rounded=0;orthogonalLoop=1;jettySize=auto;html=1;exitX=1;exitY=0.5;exitDx=0;exitDy=0;entryX=0;entryY=0.5;entryDx=0;entryDy=0;" parent="1" source="y91lAwJKIq8Cgb1tKM8N-14" target="y91lAwJKIq8Cgb1tKM8N-12" edge="1">
          <mxGeometry relative="1" as="geometry" />
        </mxCell>
        <mxCell id="y91lAwJKIq8Cgb1tKM8N-14" value="&lt;pre&gt;date&lt;/pre&gt;" style="ellipse;whiteSpace=wrap;html=1;" parent="1" vertex="1">
          <mxGeometry x="-716" y="35" width="90" height="35" as="geometry" />
        </mxCell>
        <mxCell id="y91lAwJKIq8Cgb1tKM8N-16" style="edgeStyle=orthogonalEdgeStyle;rounded=0;orthogonalLoop=1;jettySize=auto;html=1;exitX=1;exitY=0.5;exitDx=0;exitDy=0;" parent="1" source="y91lAwJKIq8Cgb1tKM8N-15" target="y91lAwJKIq8Cgb1tKM8N-12" edge="1">
          <mxGeometry relative="1" as="geometry" />
        </mxCell>
        <mxCell id="y91lAwJKIq8Cgb1tKM8N-15" value="&lt;pre&gt;content&lt;/pre&gt;" style="ellipse;whiteSpace=wrap;html=1;" parent="1" vertex="1">
          <mxGeometry x="-716" y="-10" width="90" height="35" as="geometry" />
        </mxCell>
        <mxCell id="y91lAwJKIq8Cgb1tKM8N-22" style="edgeStyle=orthogonalEdgeStyle;rounded=0;orthogonalLoop=1;jettySize=auto;html=1;exitX=0;exitY=0.5;exitDx=0;exitDy=0;entryX=1;entryY=0.5;entryDx=0;entryDy=0;strokeColor=#0000FF;" parent="1" source="y91lAwJKIq8Cgb1tKM8N-18" target="y91lAwJKIq8Cgb1tKM8N-12" edge="1">
          <mxGeometry relative="1" as="geometry" />
        </mxCell>
        <mxCell id="y91lAwJKIq8Cgb1tKM8N-18" value="send" style="rhombus;whiteSpace=wrap;html=1;" parent="1" vertex="1">
          <mxGeometry x="-400" y="-20" width="80" height="80" as="geometry" />
        </mxCell>
        <mxCell id="y91lAwJKIq8Cgb1tKM8N-23" style="edgeStyle=orthogonalEdgeStyle;rounded=0;orthogonalLoop=1;jettySize=auto;html=1;exitX=0;exitY=0.5;exitDx=0;exitDy=0;entryX=1;entryY=0.5;entryDx=0;entryDy=0;strokeColor=#0000FF;" parent="1" source="y91lAwJKIq8Cgb1tKM8N-19" target="y91lAwJKIq8Cgb1tKM8N-1" edge="1">
          <mxGeometry relative="1" as="geometry" />
        </mxCell>
        <mxCell id="y91lAwJKIq8Cgb1tKM8N-19" value="start" style="rhombus;whiteSpace=wrap;html=1;" parent="1" vertex="1">
          <mxGeometry x="-400" y="-192.5" width="80" height="80" as="geometry" />
        </mxCell>
        <mxCell id="y91lAwJKIq8Cgb1tKM8N-25" style="edgeStyle=orthogonalEdgeStyle;rounded=0;orthogonalLoop=1;jettySize=auto;html=1;exitX=0.5;exitY=1;exitDx=0;exitDy=0;strokeColor=#0000FF;" parent="1" source="y91lAwJKIq8Cgb1tKM8N-20" target="y91lAwJKIq8Cgb1tKM8N-12" edge="1">
          <mxGeometry relative="1" as="geometry" />
        </mxCell>
        <mxCell id="y91lAwJKIq8Cgb1tKM8N-20" value="has" style="rhombus;whiteSpace=wrap;html=1;" parent="1" vertex="1">
          <mxGeometry x="-566" y="-137.5" width="80" height="80" as="geometry" />
        </mxCell>
        <mxCell id="y91lAwJKIq8Cgb1tKM8N-24" value="" style="endArrow=none;html=1;rounded=0;exitX=1;exitY=0.5;exitDx=0;exitDy=0;entryX=0;entryY=0.25;entryDx=0;entryDy=0;edgeStyle=orthogonalEdgeStyle;strokeColor=#0000FF;" parent="1" source="y91lAwJKIq8Cgb1tKM8N-19" target="ToU6loC46J24oxrMq6Bs-6" edge="1">
          <mxGeometry width="50" height="50" relative="1" as="geometry">
            <mxPoint x="-320" y="-70" as="sourcePoint" />
            <mxPoint x="-270" y="-120" as="targetPoint" />
            <Array as="points">
              <mxPoint x="-240" y="-152" />
              <mxPoint x="-240" y="-95" />
            </Array>
          </mxGeometry>
        </mxCell>
        <mxCell id="y91lAwJKIq8Cgb1tKM8N-26" value="" style="endArrow=none;html=1;rounded=0;exitX=0.5;exitY=0;exitDx=0;exitDy=0;entryX=0.5;entryY=1;entryDx=0;entryDy=0;strokeColor=#0000FF;" parent="1" source="y91lAwJKIq8Cgb1tKM8N-20" target="y91lAwJKIq8Cgb1tKM8N-1" edge="1">
          <mxGeometry width="50" height="50" relative="1" as="geometry">
            <mxPoint x="-320" y="-70" as="sourcePoint" />
            <mxPoint x="-270" y="-120" as="targetPoint" />
          </mxGeometry>
        </mxCell>
        <mxCell id="y91lAwJKIq8Cgb1tKM8N-28" value="&lt;b&gt;1:M&lt;/b&gt;" style="text;html=1;align=center;verticalAlign=middle;resizable=0;points=[];autosize=1;strokeColor=none;fillColor=none;" parent="1" vertex="1">
          <mxGeometry x="-335" y="-32.5" width="40" height="30" as="geometry" />
        </mxCell>
        <mxCell id="y91lAwJKIq8Cgb1tKM8N-29" value="&lt;b&gt;1:M&lt;/b&gt;" style="text;html=1;align=center;verticalAlign=middle;resizable=0;points=[];autosize=1;strokeColor=none;fillColor=none;" parent="1" vertex="1">
          <mxGeometry x="-335" y="-180" width="40" height="30" as="geometry" />
        </mxCell>
        <mxCell id="y91lAwJKIq8Cgb1tKM8N-30" value="&lt;b&gt;1:M&lt;/b&gt;" style="text;html=1;align=center;verticalAlign=middle;resizable=0;points=[];autosize=1;strokeColor=none;fillColor=none;" parent="1" vertex="1">
          <mxGeometry x="-571" y="-150" width="40" height="30" as="geometry" />
        </mxCell>
        <mxCell id="y91lAwJKIq8Cgb1tKM8N-33" style="edgeStyle=orthogonalEdgeStyle;rounded=0;orthogonalLoop=1;jettySize=auto;html=1;exitX=0.5;exitY=1;exitDx=0;exitDy=0;entryX=0.5;entryY=0;entryDx=0;entryDy=0;" parent="1" source="y91lAwJKIq8Cgb1tKM8N-32" target="y91lAwJKIq8Cgb1tKM8N-1" edge="1">
          <mxGeometry relative="1" as="geometry" />
        </mxCell>
        <mxCell id="y91lAwJKIq8Cgb1tKM8N-32" value="&lt;pre&gt;access_users&lt;/pre&gt;" style="ellipse;whiteSpace=wrap;html=1;" parent="1" vertex="1">
          <mxGeometry x="-275" y="-390" width="90" height="35" as="geometry" />
        </mxCell>
        <mxCell id="y91lAwJKIq8Cgb1tKM8N-34" value="" style="endArrow=none;html=1;rounded=0;exitX=1;exitY=0.5;exitDx=0;exitDy=0;entryX=0;entryY=0.75;entryDx=0;entryDy=0;edgeStyle=orthogonalEdgeStyle;strokeColor=#0000FF;" parent="1" source="y91lAwJKIq8Cgb1tKM8N-18" target="ToU6loC46J24oxrMq6Bs-6" edge="1">
          <mxGeometry width="50" height="50" relative="1" as="geometry">
            <mxPoint x="-130" y="-60" as="sourcePoint" />
            <mxPoint x="-80" y="-110" as="targetPoint" />
            <Array as="points">
              <mxPoint x="-240" y="20" />
              <mxPoint x="-240" y="-55" />
            </Array>
          </mxGeometry>
        </mxCell>
      </root>
    </mxGraphModel>
  </diagram>
</mxfile>
